<svg xmlns="http://www.w3.org/2000/svg" version="1.1" width="600px" height="600px" viewBox="0 0 200 200" style="overflow:hidden!important;"><defs id="SvgjsDefs3072"><linearGradient id="SvgjsLinearGradient7281" x1="79.91" y1="76.79" x2="79.91" y2="108.93" gradientUnits="userSpaceOnUse" class="svga-on-canvas-glasses-gradient-single-0-null"><stop id="SvgjsStop7282" stop-opacity="1" stop-color="#b4c0cf" offset="0" ></stop><stop id="SvgjsStop7283" stop-opacity="0.9374" stop-color="#abbace" offset="0.0626" ></stop><stop id="SvgjsStop7284" stop-opacity="0.679" stop-color="#8aa3ca" offset="0.321" ></stop><stop id="SvgjsStop7285" stop-opacity="0.4305" stop-color="#7393c6" offset="0.5695" ></stop><stop id="SvgjsStop7286" stop-opacity="0.1987" stop-color="#6589c5" offset="0.8013" ></stop><stop id="SvgjsStop7287" stop-opacity="0" stop-color="#6086c4" offset="1" ></stop></linearGradient><linearGradient id="SvgjsLinearGradient7289" x1="120.1" y1="125.13" x2="120.1" y2="92.99" gradientTransform="matrix(1 0 0 -1 0 202)" gradientUnits="userSpaceOnUse" class="svga-on-canvas-glasses-gradient-single-1-null"><stop id="SvgjsStop7290" stop-opacity="1" stop-color="#b4c0cf" offset="0" ></stop><stop id="SvgjsStop7291" stop-opacity="0.9374" stop-color="#abbace" offset="0.0626" ></stop><stop id="SvgjsStop7292" stop-opacity="0.679" stop-color="#8aa3ca" offset="0.321" ></stop><stop id="SvgjsStop7293" stop-opacity="0.4305" stop-color="#7393c6" offset="0.5695" ></stop><stop id="SvgjsStop7294" stop-opacity="0.1987" stop-color="#6589c5" offset="0.8013" ></stop><stop id="SvgjsStop7295" stop-opacity="0" stop-color="#6086c4" offset="1" ></stop></linearGradient><linearGradient id="SvgjsLinearGradient7365" x1="79.91" y1="76.79" x2="79.91" y2="108.93" gradientUnits="userSpaceOnUse" class="svga-on-canvas-glasses-gradient-single-0-null"><stop id="SvgjsStop7366" stop-opacity="1" stop-color="#b4c0cf" offset="0" ></stop><stop id="SvgjsStop7367" stop-opacity="0.9374" stop-color="#abbace" offset="0.0626" ></stop><stop id="SvgjsStop7368" stop-opacity="0.679" stop-color="#8aa3ca" offset="0.321" ></stop><stop id="SvgjsStop7369" stop-opacity="0.4305" stop-color="#7393c6" offset="0.5695" ></stop><stop id="SvgjsStop7370" stop-opacity="0.1987" stop-color="#6589c5" offset="0.8013" ></stop><stop id="SvgjsStop7371" stop-opacity="0" stop-color="#6086c4" offset="1" ></stop></linearGradient><linearGradient id="SvgjsLinearGradient7373" x1="120.1" y1="125.13" x2="120.1" y2="92.99" gradientTransform="matrix(1 0 0 -1 0 202)" gradientUnits="userSpaceOnUse" class="svga-on-canvas-glasses-gradient-single-1-null"><stop id="SvgjsStop7374" stop-opacity="1" stop-color="#b4c0cf" offset="0" ></stop><stop id="SvgjsStop7375" stop-opacity="0.9374" stop-color="#abbace" offset="0.0626" ></stop><stop id="SvgjsStop7376" stop-opacity="0.679" stop-color="#8aa3ca" offset="0.321" ></stop><stop id="SvgjsStop7377" stop-opacity="0.4305" stop-color="#7393c6" offset="0.5695" ></stop><stop id="SvgjsStop7378" stop-opacity="0.1987" stop-color="#6589c5" offset="0.8013" ></stop><stop id="SvgjsStop7379" stop-opacity="0" stop-color="#6086c4" offset="1" ></stop></linearGradient></defs><g id="svga-group-wrapper"><g id="svga-group-backs-single"><path id="SvgjsPath3520" d="M0 0h200v200H0V0z" fill="#ecf0f1" stroke-width="none" opacity="1"></path></g><g id="svga-group-humanwrap-move" transform="matrix(1,0,0,1,0,0)"><g id="svga-group-humanwrap" transform="matrix(1.1500005000000004,0,0,1.1500005000000004,-14.917552700473834,-18.173655721015024)"><g id="svga-group-hair-back-move" transform="matrix(1,0,0,1,0,0)"><g id="svga-group-hair-back" transform="matrix(1.0400003000000002,0,0,1.0002003000000002,0,0)"></g></g><g id="svga-group-humanbody-back"><path id="SvgjsPath3473" d="M166.5 181.1c-10.9-6.6-27.6-8.4-35-12.1-4.9-2.5-9.1-4.7-8.9-17.8s1.9-42.4 1.9-42.4H75.4s1.6 29.4 1.9 42.4-4.2 15.6-8.9 17.8c-7.4 3.5-24.1 5.4-35 12.1-10.8 6.6-10 18.9-10 18.9v19.7h153.3V200c-.1 0 .7-12.3-10.2-18.9z" fill="#f0c7b1" stroke-width="none" opacity="1" stroke="none"></path></g><g id="svga-group-chinshadow-single"><path id="SvgjsPath7924" d="M76.6 159.7c11 5 20.4 5.7 23.4 5.7s12.4-.8 23.3-5.7c-.5-2.2-.8-4.9-.7-8.5.2-13.1 1.9-42.4 1.9-42.4H75.4s1.6 29.4 1.9 42.4c.1 3.5-.2 6.3-.7 8.5z" fill="#d19271" stroke-width="none" opacity="0.65"></path></g><g id="svga-group-humanbody-front"><path id="SvgjsPath3474" d="M78.7 156.8c.5 4.8 1.7 9.4 3.1 13.9.8 2.3 1.6 4.6 2.6 6.9.8 2 1.7 4.2 3.1 5.9.3.4 1 0 .9-.5-.5-2.2-1.6-4.3-2.4-6.4-.9-2.2-1.7-4.4-2.5-6.6-1.5-4.4-2.8-8.9-4.1-13.3-.2-.4-.8-.3-.7.1zm41.3-1c-1.3 8.2-3.9 16.1-5.4 24.2-.1.4.4.5.6.2 3.1-7.7 4.1-16.1 5.1-24.3-.1-.2-.3-.2-.3-.1zm-25.8 11.9c-.9 3.6 1.9 8.6 6.2 7.6.5-.1.4-.8 0-1-1.4-.5-2.9-.9-3.9-2.1-1.1-1.2-1.5-2.9-1.4-4.5 0-.4-.8-.5-.9 0z" fill="#d19271" stroke-width="none" opacity="1" stroke="none"></path><path id="SvgjsPath3475" d="M177.3 219.7c-.1-6.6-.3-13.1-.3-19.7l-.3-.3c.1 0 .1 0 .2.1s.1.2.1.1v-1.4c0-.5-.1-.9-.1-1.4-.1-.9-.3-1.9-.5-2.8-.5-1.8-1.1-3.6-2-5.3-1.7-3.4-4.4-6.2-7.7-8.1-3.6-2.2-7.6-3.8-11.6-5.1-4-1.3-8.1-2.4-12.1-3.5-4-1.2-8.1-2.2-11.8-4.2-1.9-1-3.6-2.1-4.8-3.6-1.2-1.6-1.9-3.5-2.3-5.5-.8-4-.4-8.2-.3-12.4l.7-12.6 1.5-25.2.1-1.4h-1.4c-8.2 0-16.4 0-24.6.1l-24.6.3h-.9l.1.9c.8 11.9 1.6 23.8 2.1 35.7.1 3 .3 6 .2 8.9-.1 2.9-.4 5.9-1.6 8.6-.6 1.3-1.4 2.5-2.4 3.5s-2.3 1.8-3.6 2.4c-2.6 1.3-5.4 2.2-8.3 3-5.8 1.5-11.6 2.8-17.3 4.7-2.8.9-5.7 2-8.4 3.4-1.3.7-2.7 1.4-4 2.4-1.3.9-2.4 1.9-3.5 3.1-2.1 2.3-3.6 5.2-4.5 8.1-.5 1.5-.8 3-1 4.6-.1.8-.1 1.6-.1 2.4v2.3l-.2 17.9v1.3h1.4l38.3.2c12.8.1 25.5.1 38.3 0 12.8-.1 25.6-.1 38.3-.3 12.8-.2 25.6-.5 38.3-.7h.6v-.5zm-77.2-1.6H61.8l-37 .2-.1-16.6v-2.2c0-.7 0-1.4.1-2.1.1-1.4.4-2.8.8-4.2.8-2.7 2.1-5.3 3.9-7.5.9-1.1 2-2.1 3.1-2.9 1.1-.9 2.4-1.6 3.7-2.3 2.6-1.4 5.3-2.5 8.1-3.5 5.6-2 11.4-3.4 17.1-5.1 2.9-.8 5.8-1.7 8.5-3.1 1.3-.7 2.7-1.5 3.8-2.6 1.1-1.1 2-2.4 2.6-3.9 1.2-2.9 1.5-5.9 1.6-8.9 0-3-.1-6-.2-9l-1.3-34.8 23.5.4c7.7.1 15.4.1 23.1.1-.4 7.9-.8 15.9-1.1 23.8-.2 4.2-.2 8.4-.3 12.6 0 4.2-.2 8.5.8 12.8.5 2.1 1.3 4.2 2.8 6 1.4 1.7 3.4 2.9 5.3 3.8 3.9 1.9 8 2.8 12.1 3.8s8.2 2 12.2 3.3c4 1.3 7.9 2.8 11.5 5 3.2 1.9 5.8 4.7 7.5 8 .9 1.6 1.5 3.4 1.9 5.2.2.9.4 1.8.4 2.7.1.5.1.9.1 1.4V200l-.3 19c-12.6-.2-25.1-.5-37.7-.7-12.7-.1-25.5-.1-38.2-.2z" fill="#c27b55" stroke-width="none" opacity="1" stroke="none"></path></g><g id="svga-group-clothes-single"><path id="SvgjsPath8697" d="M179.3 220.1c0-17.5-1.6-26.7-1.6-26.7-3-14-21.9-18.2-30.7-20.1-15.2-3-20.1-7.2-20.1-7.2s-6.4 16-27.5 16-26.8-16.6-26.8-16.6-5.3 4.1-21.2 7.1c-8.7 1.9-26.3 6.9-29.3 20.9 0 0-1.6 9.2-1.6 26.7h158.8z" fill="#000000" stroke-width="none" opacity="1" stroke="none"></path><path id="SvgjsPath8698" d="M179.6 209.2c-.1-3.6-.2-7.3-.5-10.9l-.3-2.7c-.1-.9-.2-1.8-.4-2.8-.4-1.9-1.1-3.6-2.1-5.3-1.9-3.3-4.9-5.9-8-7.9-3.2-2-6.6-3.5-10.1-4.7-3.5-1.2-7.1-2.1-10.6-2.9-3.5-.7-7-1.6-10.4-2.7-1.7-.6-3.3-1.2-4.9-1.9-.8-.4-1.6-.7-2.4-1.1-.4-.2-.8-.4-1.1-.6-.3-.2-.7-.5-1-.6-.1-.1-.2-.1-.3-.2-.7-.3-1.5 0-1.8.7-.5 1.1-1.2 2.3-1.9 3.4-.8 1.1-1.6 2.1-2.5 3.1-1.8 1.9-3.9 3.6-6.2 5-4.6 2.7-10.1 4-15.5 4.1-5.4.1-11-1-15.7-3.8-4.7-2.8-8.6-7.1-10.7-12.1 0 0 0-.1-.1-.1-.2-.2-.5-.3-.7-.1-1.4 1-3.1 1.8-4.7 2.4-1.7.7-3.4 1.3-5.1 1.8-3.5 1.1-7 1.9-10.5 2.6-7.1 1.5-14.3 3.5-20.6 7.6-3.1 2-6 4.6-7.9 7.9-1 1.6-1.7 3.4-2.2 5.3-.1.2-.1.5-.2.7l-.1.7-.2 1.4-.3 2.7c-.8 7.3-1.1 14.6-1.2 21.9 0 .7.6 1.4 1.3 1.4l40 .2c13.3 0 26.7-.1 39.9-.2l39.8-.3 36.9-.6 2.2-.4c.1-3.8.1-7.3.1-11zm-20.5 10.4-20-.3-39.7-.5c-13.2-.1-26.3-.2-39.4-.2l-38 .2c0-6.8.1-13.6.7-20.3l.3-2.7.1-1.3.1-.7c0-.2.1-.4.1-.6.4-1.6 1-3.3 1.8-4.8 1.7-3 4.2-5.6 7.1-7.6 2.9-2 6.2-3.6 9.5-4.9s6.8-2.3 10.4-3c3.6-.7 7.1-1.6 10.6-2.7 1.7-.6 3.5-1.2 5.2-1.9 1.5-.6 3-1.3 4.5-2.2 1.1 2.5 2.5 4.7 4.2 6.8 1.8 2.2 4 4.1 6.5 5.6 4.9 3.1 10.7 4.4 16.4 4.5 5.7.1 11.6-1 16.7-3.8 2.6-1.4 4.9-3.2 6.9-5.3 1.7-1.8 3.1-3.6 4.3-5.8.4.2.8.5 1.2.7.8.4 1.7.9 2.5 1.2 1.7.8 3.4 1.4 5.2 2 3.5 1.1 7.1 2 10.7 2.7 7 1.4 14 3.3 20.1 6.9 3 1.8 5.7 4.1 7.6 7 .9 1.4 1.6 3.1 2.1 4.7.2.8.3 1.7.4 2.6l.3 2.7c.4 3.6.8 7.2 1 10.8.2 3.6.4 7.3.6 10.8l-20-.6zM38.3 188.5c1.4 3.2 2.4 6.5 3.2 9.9.4 1.7.8 3.4 1.1 5.1.3 1.7.6 3.4.9 5.2.5 3.2 1 6.4 1.4 9.6h.2c.2-3.2.2-6.5 0-9.8-.3-3.5-.8-7.1-1.6-10.6-.4-1.7-.9-3.5-1.5-5.2-.6-1.7-1.3-3.4-2.2-4.9-.8-1.6-1.8-3.1-3-4.5-1-1.1-2-2.2-3.2-3.1-.1 0-.1.1-.2.1 1 1.1 1.8 2.3 2.6 3.5.8 1.5 1.6 3.1 2.3 4.7zm118.3 20.1c.3-1.7.6-3.5.9-5.2.3-1.7.6-3.4 1.1-5.1.8-3.4 1.8-6.7 3.2-9.9.7-1.6 1.5-3.1 2.4-4.6.7-1.1 1.5-2.3 2.4-3.3-.1-.1-.2-.1-.2-.2-1.1.8-2.1 1.8-3 2.9-1.1 1.4-2.1 2.9-3 4.5-.9 1.6-1.6 3.2-2.2 4.9-.6 1.7-1.1 3.4-1.5 5.2-.8 3.5-1.3 7-1.6 10.6-.2 3.5-.3 7.1 0 10.6.5-3.5 1-6.9 1.5-10.4zM116 183.8c-5.2 2.9-11.3 3.9-17.3 3.5-1.5-.1-3-.2-4.5-.4s-2.9-.5-4.4-.9c-1.4-.4-2.8-.9-4.2-1.5-1.3-.6-2.7-1.3-3.9-2.1-2.5-1.6-4.8-3.6-6.7-5.8-2-2.2-3.7-4.7-5-7.3 2 5.6 5.8 10.7 10.9 14.3 2.5 1.8 5.4 3.2 8.4 4.1 1.5.4 3.1.8 4.6 1 1.6.2 3.1.4 4.7.4 3.1.1 6.3 0 9.4-.7 3.1-.7 6.1-1.8 8.8-3.4 2.7-1.6 5.1-3.6 7.2-5.8 2.1-2.2 4-4.6 5.6-7.1-4 4.5-8.3 8.8-13.6 11.7z" fill="#000000" stroke-width="none" opacity="1" stroke="none"></path></g><g id="svga-group-head" transform="matrix(1,0,0,1,0,0)"><g id="svga-group-ears-left-move" transform="matrix(1,0,0,1,-3,0)"><g id="svga-group-ears-left" transform="matrix(1,0,0,1,0,0)"><path id="SvgjsPath3373" d="M62 92.9c-.2-.3-3.3-4.3-5.9-6.7-2.6-2.4-3.4-2.4-4.6-.9-1.3 1.5-2.9 9.1-2.5 12.4.4 3.4 3.6 8.7 5.2 11.7 1.7 3 3.3 6.7 5.1 6.3 1.9-.4 4.4-4.6 5.7-7.7 1.3-3.1.5-10.8-3-15.1z" fill="#f0c7b1" stroke-width="none" opacity="1" stroke="none"></path><path id="SvgjsPath3374" d="M65.8 102c.1.9.2 1.7.2 2.6s0 1.7-.2 2.6c-.1.4-.2.9-.3 1.3-.1.4-.3.7-.4 1.1-.3.7-.6 1.4-1 2.1-.7 1.3-1.5 2.6-2.6 3.6-.5.5-1.1 1-1.8 1.3-.4.1-.9.1-1.3 0-.4-.2-.8-.5-1.1-.8-1.2-1.3-1.9-2.8-2.7-4.3-.7-1.5-1.5-2.9-2.2-4.3-.7-1.5-1.5-2.9-2.1-4.4-.3-.8-.7-1.5-.9-2.3-.3-.8-.5-1.6-.6-2.5-.2-1.7 0-3.4.1-5 .2-1.6.5-3.2.8-4.8.2-.8.4-1.6.8-2.3l.3-.6c.1-.2.3-.4.4-.5.2-.3.5-.6.9-.8.3-.2.8-.3 1.2-.3.4.1.8.3 1.1.5.7.4 1.2 1 1.8 1.5 2.2 2.2 4 4.8 5.9 7.2 1.9 2.4 3.2 5.7 3.7 9.1zM55.7 86.4c-1.1-.9-2.4-1.9-3.1-1.2-.2.1-.4.4-.6.6l-.3.3c-.1.1-.1.3-.2.4-.3.6-.5 1.3-.8 2-.5 1.4-.9 2.9-1.1 4.5-.3 1.5-.5 3.1-.4 4.7.1.8.3 1.6.6 2.3.3.8.6 1.5.9 2.2.7 1.5 1.5 2.8 2.3 4.2.8 1.4 1.7 2.7 2.5 4.1.4.7.8 1.4 1.2 2s.8 1.3 1.3 1.7c.5.4.9.6 1.3.4.5-.2.9-.6 1.4-1.1.9-1 1.6-2.1 2.3-3.4.4-.6.7-1.3 1-1.9.2-.3.3-.7.4-1l.2-.5c0-.2.1-.3.1-.5.3-1.4.4-3 .3-4.6s-.4-3.2-.9-4.8c-.5-1.6-1.2-3-2.2-4.2-1.9-2.1-4-4.3-6.2-6.2z" fill="#e1ac8f" stroke-width="none" opacity="1" stroke="none"></path><path id="SvgjsPath3375" d="M51.2 99.4c-.3-2.3-.5-7.8.8-9.6 2.2-2.9 6 6.4 6.9 9.3 0 .1.1.2.1.3.2.3-.1.7-.4.6-.4-.2-.9-.6-1.3-.8-1.1-.5-1.6.5-1.3 1.8.4 1.8 1.4 2.9 2.2 4.3.1.2 0 .4-.2.3-1.6-.9-3.5-4.5-3.1-6.6.3-2 1.9-1.8 3.1-.8-.7-1.7-1.5-3.3-2.5-4.8-.6-.9-1.2-2-2.2-2.2-1.2-.2-1 .3-1.2 1.8-.8 4.8-.3 10.4 2.5 14.5.1.1 0 .2-.1.1-1.8-2.3-3-4.9-3.3-8.2z" fill="#d19271" stroke-width="none" opacity="1" stroke="none"></path></g></g><g id="svga-group-ears-right-move" transform="matrix(1,0,0,1,3,0)"><g id="svga-group-ears-right" transform="matrix(1,0,0,1,0,0)"><path id="SvgjsPath3376" d="M138 92.9c.2-.3 3.3-4.3 5.9-6.7 2.6-2.4 3.4-2.4 4.6-.9 1.3 1.5 2.9 9.1 2.5 12.4s-3.6 8.7-5.2 11.7c-1.7 3-3.3 6.7-5.1 6.3-1.9-.4-4.4-4.6-5.7-7.7s-.5-10.8 3-15.1z" fill="#f0c7b1" stroke-width="none" opacity="1" stroke="none"></path><path id="SvgjsPath3377" d="M138 92.9c1.9-2.4 3.8-5 5.9-7.2.5-.5 1.1-1.1 1.8-1.5.3-.2.7-.4 1.1-.5.4-.1.9.1 1.2.3.3.2.6.5.9.8.1.1.2.3.4.5l.3.6c.3.7.6 1.5.8 2.3.4 1.6.7 3.2.8 4.8.2 1.6.3 3.3.1 5-.1.9-.4 1.7-.6 2.5-.3.8-.6 1.6-.9 2.3-.7 1.5-1.4 3-2.1 4.4-.8 1.5-1.5 2.9-2.2 4.3-.8 1.4-1.4 3-2.7 4.3-.3.3-.7.6-1.1.8-.4.2-.9.2-1.3 0-.8-.3-1.3-.8-1.8-1.3-1-1.1-1.8-2.3-2.6-3.6-.4-.7-.7-1.4-1-2.1-.2-.4-.3-.7-.4-1.1-.1-.4-.3-.8-.3-1.3-.1-.9-.2-1.7-.2-2.6s.1-1.7.2-2.6c.4-3.4 1.7-6.7 3.7-9.1zm.1.1c-1 1.2-1.7 2.7-2.2 4.2-.5 1.6-.8 3.2-.9 4.8-.1 1.6 0 3.2.3 4.6 0 .2.1.3.1.5l.2.5c.1.3.3.7.4 1 .3.7.6 1.3 1 1.9.7 1.2 1.5 2.4 2.3 3.4.4.5.9.9 1.4 1.1.4.2.8 0 1.3-.4s.9-1 1.3-1.7c.4-.6.8-1.3 1.2-2 .8-1.4 1.7-2.8 2.5-4.1.8-1.4 1.6-2.8 2.3-4.2.4-.7.7-1.5.9-2.2.3-.8.5-1.6.6-2.3.1-1.6-.1-3.2-.4-4.7-.3-1.5-.7-3-1.1-4.5-.2-.7-.5-1.4-.8-2-.1-.1-.1-.3-.2-.4-.1-.1-.1-.2-.3-.3-.2-.2-.4-.5-.6-.6-.7-.6-2 .4-3.1 1.2-2.2 1.5-4.3 3.7-6.2 6.2z" fill="#e1ac8f" stroke-width="none" opacity="1" stroke="none"></path><path id="SvgjsPath3378" d="M148.8 99.4c.3-2.3.5-7.8-.8-9.6-2.2-2.9-6 6.4-6.9 9.3 0 .1-.1.2-.1.3-.2.3.1.7.4.6.4-.2.9-.6 1.3-.8 1.1-.5 1.6.5 1.3 1.8-.4 1.8-1.4 2.9-2.2 4.3-.1.2 0 .4.2.3 1.6-.9 3.5-4.5 3.1-6.6-.3-2-1.9-1.8-3.1-.8.7-1.7 1.5-3.3 2.5-4.8.6-.9 1.2-2 2.2-2.2 1.2-.2 1 .3 1.2 1.8.8 4.8.3 10.4-2.5 14.5-.1.1 0 .2.1.1 1.8-2.3 3-4.9 3.3-8.2z" fill="#d19271" stroke-width="none" opacity="1" stroke="none"></path></g></g><g id="svga-group-faceshape-wrap" transform="matrix(1.0400003000000002,0,0,1.0002003000000002,-4.000030152589062,-0.018728047707767814)"><g id="svga-group-faceshape-single"><path id="SvgjsPath7914" d="M100 35.3c-22.5 0-41.9 16.4-43.2 46.4v.3c0 2.2-1.4 19.3.9 31.5 2.4 13.2-.3 25.4 12.2 32.1s26.8 7.6 30.1 7.6 17.5-.9 30.1-7.6 9.5-18.9 11.9-32.1c2.3-12.2 1.1-29.3 1.2-31.5v-.3c-1.3-29.9-20.7-46.4-43.2-46.4z" fill="#f0c7b1" stroke-width="none" opacity="1"></path><path id="SvgjsPath7915" d="M69.9 145.6c12.5 6.7 26.8 7.6 30.1 7.6s17.5-.9 30.1-7.6c12.6-6.7 9.5-18.9 11.9-32.1 2.3-12.2 1.1-29.3 1.2-31.5v-.3c-1.3-29.9-20.7-46.4-43.2-46.4S58.1 51.7 56.8 81.7v.3c0 2.2-1.4 19.3.9 31.5 2.4 13.2-.3 25.4 12.2 32.1zM58.5 95c.1-3.4.3-6.9.4-10.4 0-.9.1-1.7.1-2.7 0-.8.1-1.7.2-2.5l.2-2.5c.1-.8.2-1.7.4-2.5l.4-2.5c.1-.8.4-1.6.6-2.5l.6-2.5c.2-.8.5-1.6.8-2.4.3-.8.5-1.6.8-2.4l1-2.3c.6-1.6 1.5-3 2.2-4.5.4-.8.9-1.4 1.3-2.1.5-.7.9-1.4 1.4-2.1l1.6-2 .8-1 .9-.9 1.8-1.8c.6-.6 1.3-1.1 2-1.6 1.3-1.1 2.8-2 4.2-2.9 5.9-3.5 12.9-5.2 19.9-5.3 6.9.1 13.9 1.8 19.8 5.3 1.4 1 2.9 1.8 4.2 2.9.7.5 1.3 1.1 2 1.6l1.8 1.8.9.9.8 1 1.6 2c.5.7.9 1.4 1.4 2.1.4.7 1 1.4 1.3 2.1.8 1.5 1.6 2.9 2.2 4.5 0 0 1.5 3.9 1.8 4.7l1.2 4.9c.2.8.4 1.6.5 2.5 0 0 .7 4.2.7 5l.2 2.5s.1 2.3.1 2.4v2.7c.1 3.5.1 6.9.1 10.4-.1 3.4-.2 8.9-.6 12.2-.2 1.7-.4 3.4-.7 5-.1.8-.3 1.8-.4 2.6-.2.9-.2 1.8-.3 2.7-.4 3.6-.5 7.1-.8 10.4-.4 3.3-.9 6.6-2.4 9.2-1.4 2.7-3.6 4.8-6.4 6.4-2.9 1.6-6 3-9.2 4.1s-6.5 2-9.9 2.7c-3.3.7-6.8 1.2-10.1 1.4-3.4 0-6.8-.3-10.2-.8-3.4-.5-6.8-1.2-10.1-2.3-3.3-1-6.5-2.3-9.5-4-3-1.6-5.5-4-7.1-6.9-.4-.7-.7-1.5-1-2.3-.2-.8-.5-1.6-.7-2.4-.2-.8-.4-1.7-.5-2.5-.2-.8-.2-1.7-.3-2.5-.3-3.4-.4-6.9-.7-10.5-.1-1.7-.4-3.6-.6-5.3-.1-.8-.2-1.7-.3-2.5s-.2-1.7-.2-2.6c-.3-3.1-.3-8.6-.2-12z" fill="#c27b55" stroke-width="none" opacity="1"></path></g></g><g id="svga-group-mouth-single-move" transform="matrix(1,0,0,1,0,0)"><g id="svga-group-mouth-single" transform="matrix(0.9499999,0,0,0.9499999,5.00776529505157,6.472272084532932)"><path id="SvgjsPath7765" d="M89.47 129.26c7.15 4.25 15.5 3.75 21.52.68.34-.17.08-.61-.24-.56-3.56.54-6.71 1.36-10.36 1.39-3.63.03-7.5-.8-10.8-1.91-.31-.1-.22.35-.12.4z" fill="#d19271" stroke-width="none" opacity="1" transform="translate(0 2)" stroke="none"></path><path id="SvgjsPath7766" d="M108.72 128.48c-2.29.41-4.47 1.09-6.8 1.27-2.34.18-4.58-.1-6.9-.33-.24-.02-.29.35-.08.41 4.27 1.17 9.93 1.12 13.97-.81.32-.15.12-.59-.19-.54z" fill="#f8d5c3" stroke-width="none" opacity="1" transform="translate(0 2)" stroke="none"></path><path id="SvgjsPath7767" d="M99.53 122.55c-3.63-.05-7.67.28-9.65.6-3.06.5-4.82-.23-4.95.4-.09.41 5.65 1.29 7.28 1.43 1.63.13 4.66 1.62 7.09 1.88 2.43.27 4.02-.95 5.95-1.39 1.93-.43 6.6-.78 8.04-1 1.9-.26 3.41-1.29.32-1.14-.46.02-.93.01-1.39-.03-2.66-.26-8.31-.69-12.69-.75z" fill="#da7c87" stroke-width="none" opacity="1" transform="translate(0 2)" stroke="none"></path></g></g><g id="svga-group-eyes-left-move" transform="matrix(1,0,0,1,0,0)"><g id="svga-group-eyes-left" transform="matrix(1,0,0,1,0,0)"><g id="svga-group-eyesback-left"><path id="SvgjsPath6085" d="M90.4 96.5S89 94 86.9 92.3c-2.1-1.7-5.6-2.5-8.1-2.3-2.5.2-7.1 1.8-9.6 5.5 0 0 2.3 1.2 5.6 1.8 3.3.6 8.9 1.1 12 .4 3-.6 3.6-1.2 3.6-1.2z" fill="#ffffff" stroke-width="none" opacity="1"></path></g><g id="svga-group-eyesiriswrapper-left" transform="matrix(1,0,0,1,0,0)"><g id="svga-group-eyesiriscontrol-left" transform="matrix(1,0,0,1,0,0)"><g id="svga-group-eyesiris-left" transform="matrix(1,0,0,1,0,0)"><path id="SvgjsPath3490" d="M80.1 88.4c2.8 0 5.2 2.3 5.2 5.2s-2.3 5.2-5.2 5.2-5.2-2.3-5.2-5.2 2.3-5.2 5.2-5.2z" fill="#5c3808" stroke-width="none" opacity="1" stroke="none"></path><path id="SvgjsPath3491" d="M80.1 90.8c1.5 0 2.8 1.2 2.8 2.8s-1.2 2.8-2.8 2.8-2.8-1.2-2.8-2.8 1.2-2.8 2.8-2.8z" fill="#000000" stroke-width="none" opacity="1"></path><path id="SvgjsPath3492" d="m79.4 91.3-.6-.6c-.2-.2-.4-.3-.7-.3-.2 0-.5.1-.7.3-.2.2-.3.4-.3.7s.1.5.3.7l.6.6c.2.2.4.3.7.3.2 0 .5-.1.7-.3.3-.5.4-1.1 0-1.4zm2.5 4.7c.9 0 .9-1.4 0-1.4s-.8 1.4 0 1.4z" fill="#ffffff" stroke-width="none" opacity="1"></path></g></g></g><g id="svga-group-eyesfront-left"><path id="SvgjsPath6093" d="M74.8 97.4c3.3.6 8.9 1.1 12 .4s3.6-1.3 3.6-1.3-1.4-2.5-3.5-4.2-5.6-2.5-8.1-2.3c-2.5.2-6.8 1.7-9.3 5.2v-.7c0-6.4 4.7-11.5 10.6-11.5s10.6 5.2 10.6 11.5S86 106 80.1 106c-5.5 0-10.1-4.6-10.6-10.5.6.5 2.6 1.4 5.3 1.9z" fill="#f0c7b1" stroke-width="none" opacity="1" stroke="none"></path><path id="SvgjsPath6094" d="M90.9 98c-3.6 2.6-8.4 4.1-12.9 3.7-.2 0-.2-.2 0-.2 4.7-.5 8.5-1.4 12.7-3.7.3-.2.4.1.2.2z" fill="#e1ac8f" stroke-width="none" opacity="1" stroke="none"></path><path id="SvgjsPath6095" d="M69.2 95.7c5.5 4.1 15.4 3.7 21.5 1.5.3-.1.5-.5.3-.8-4.8-9.2-16.2-9.3-22-1-.1.1.1.3.2.3zm10.9 1.9c-3.7-.2-7-1.3-10.5-2.2 5.7-6.8 15.6-6.8 20.2.9-3.2 1.1-6.4 1.5-9.7 1.3z" fill="#000000" stroke-width="none" opacity="1" stroke="none"></path></g></g></g><g id="svga-group-eyes-right-move" transform="matrix(1,0,0,1,0,0)"><g id="svga-group-eyes-right" transform="matrix(1,0,0,1,0,0)"><g id="svga-group-eyesback-right"><path id="SvgjsPath6086" d="M109.6 96.5s1.4-2.5 3.5-4.2c2.1-1.7 5.6-2.5 8.1-2.3 2.5.2 7.1 1.8 9.6 5.5 0 0-2.3 1.2-5.6 1.8-3.3.6-8.9 1.1-12 .4-3-.6-3.6-1.2-3.6-1.2z" fill="#ffffff" stroke-width="none" opacity="1"></path></g><g id="svga-group-eyesiriswrapper-right" transform="matrix(1,0,0,1,0,0)"><g id="svga-group-eyesiriscontrol-right" transform="matrix(1,0,0,1,0,0)"><g id="svga-group-eyesiris-right" transform="matrix(1,0,0,1,0,0)"><path id="SvgjsPath3493" d="M119.9 88.4c2.8 0 5.2 2.3 5.2 5.2s-2.3 5.2-5.2 5.2-5.2-2.3-5.2-5.2 2.4-5.2 5.2-5.2z" fill="#5c3808" stroke-width="none" opacity="1" stroke="none"></path><path id="SvgjsPath3494" d="M119.9 90.8c1.5 0 2.8 1.2 2.8 2.8s-1.2 2.8-2.8 2.8-2.8-1.2-2.8-2.8 1.3-2.8 2.8-2.8z" fill="#000000" stroke-width="none" opacity="1"></path><path id="SvgjsPath3495" d="m119.3 91.3-.6-.6c-.2-.2-.4-.3-.7-.3-.2 0-.5.1-.7.3-.2.2-.3.4-.3.7s.1.5.3.7l.6.6c.2.2.4.3.7.3.2 0 .5-.1.7-.3.3-.5.4-1.1 0-1.4zm2.5 4.7c.9 0 .9-1.4 0-1.4s-.9 1.4 0 1.4z" fill="#ffffff" stroke-width="none" opacity="1"></path></g></g></g><g id="svga-group-eyesfront-right"><path id="SvgjsPath6096" d="M125.2 97.4c-3.3.6-8.9 1.1-12 .4s-3.6-1.3-3.6-1.3 1.4-2.5 3.5-4.2 5.6-2.5 8.1-2.3c2.5.2 6.8 1.7 9.3 5.2v-.7c0-6.4-4.7-11.5-10.6-11.5s-10.6 5.2-10.6 11.5S114 106 119.9 106c5.5 0 10.1-4.6 10.6-10.5-.6.5-2.6 1.4-5.3 1.9z" fill="#f0c7b1" stroke-width="none" opacity="1" stroke="none"></path><path id="SvgjsPath6099" d="M109.1 98c3.6 2.6 8.4 4.1 12.9 3.7.2 0 .2-.2 0-.2-4.7-.5-8.5-1.4-12.7-3.7-.3-.2-.4.1-.2.2z" fill="#e1ac8f" stroke-width="none" opacity="1" stroke="none"></path><path id="SvgjsPath6100" d="M131 95.4c-5.8-8.3-17.3-8.2-22 1-.2.3 0 .7.3.8 6.1 2.2 16 2.6 21.5-1.5.1 0 .3-.2.2-.3zm-20.8.9c4.6-7.7 14.5-7.7 20.2-.9-3.5.9-6.8 2-10.5 2.2-3.3.2-6.5-.2-9.7-1.3z" fill="#000000" stroke-width="none" opacity="1" stroke="none"></path></g></g></g><g id="svga-group-facehighlight-single"></g><g id="svga-group-eyebrows-left-move" transform="matrix(1,0,0,1,0,0)"><g id="svga-group-eyebrows-left-rotate" transform="matrix(1,0,0,1,0,0)"><g id="svga-group-eyebrows-left" transform="matrix(1,0,0,1,0,0)"><path id="SvgjsPath6129" d="M71.9 81.2c.2-.2.4-.3.6-.4.2-.1.4-.2.7-.3.4-.2.8-.4 1.3-.5.5-.2 1.4-.5 1.9-.2 1.7-.6 4-.2 5.6.6 2.1.2 4.3.9 5.9 2 .1.1.2.2.2.3l.9.3c1.1.4 2.3.8 3.4 1.3.1 0 .2.1.3.1.4.2.5.7.2.9-.1.1-.1.2-.3.3-.8.6-2 .2-2.9-.1-.8-.3-1.6-.7-2.2-1.3-.8-.3-1.6-.7-2.3-1.2-.1 0-.2-.1-.3-.1-1.4-.2-2.8-.8-4-1.4h-.1c-.7-.2-1.4-.3-2.2-.3-1-.1-2 .2-3-.1h-.1c-.2.1-.4.1-.6.2-.9.3-1.6.4-2.6.4-.1 0-.2-.1-.2-.2H72s-.2-.2-.1-.3z" fill="#2a232b" stroke-width="none" opacity="1"></path><path id="SvgjsPath6130" d="M76.9 79.1c3.4-.3 6.8 1.7 9.9 2.9 1.9.7 5.8 1 6.5 3.3.1.3-.3.5-.5.2-1-1.4-2.6-1.5-4.1-2-1.3-.4-2.6-.9-3.8-1.4-2.7-1.1-5.3-1.7-8-2.4-.3-.2-.2-.6 0-.6z" fill="#3a353a" stroke-width="none" opacity="1"></path><path id="SvgjsPath6131" d="M94.4 85.2c.3-1.5-2-2.1-3.1-2.5-2.7-1.1-5.4-2.3-8.2-3.1-1.7-.5-3.4-.8-5.1-.8-1.3 0-2.6.1-3.8.5-2.2.7-4.3 1.9-6.2 3.4-1 .6-2 1.3-2.8 2.1-.2.2 0 .4.2.3.1 0 .1 0 .1-.1.1.1.1.1.2.1 1.6-.7 3.1-1.8 4.8-2.5 1.6-.7 3.4-1.1 5.1-1.2h.8c2.1 0 4.1.4 6 1.3 2.6 1.2 5.1 2.8 7.7 3.8.5.2 1 .3 1.6.2 1.3.2 2.4-.3 2.7-1.5zm-16.3-5.4c1.8 0 3.6.4 5.3 1 2.2.8 4.4 1.8 6.6 2.6.4.2 2.6.7 2.8 1.3.2.7-.3.9-.8 1-.3 0-.6-.1-.8-.1-.7-.2-1.3-.6-1.9-.9-3.4-1.7-6.9-3.9-10.8-4.1h-1.1c-1.2 0-2.5.1-3.8.3.6-.2 1.1-.4 1.7-.6.8-.4 1.8-.5 2.8-.5z" fill="#1b141c" stroke-width="none" opacity="1"></path></g></g></g><g id="svga-group-eyebrows-right-move" transform="matrix(1,0,0,1,0,0)"><g id="svga-group-eyebrows-right-rotate" transform="matrix(1,0,0,1,0,0)"><g id="svga-group-eyebrows-right" transform="matrix(1,0,0,1,0,0)"><path id="SvgjsPath6132" d="M128.1 81.2c-.2-.2-.4-.3-.6-.4-.2-.1-.4-.2-.7-.3-.4-.2-.8-.4-1.3-.5-.5-.2-1.4-.5-1.9-.2-1.7-.6-4-.2-5.6.6-2.1.2-4.3.9-5.9 2-.1.1-.2.2-.2.3l-.9.3c-1.1.4-2.3.8-3.4 1.3-.1 0-.2.1-.3.1-.4.2-.5.7-.2.9.1.1.1.2.3.3.8.6 2 .2 2.9-.1.8-.3 1.6-.7 2.2-1.3.8-.3 1.6-.7 2.3-1.2.1 0 .2-.1.3-.1 1.4-.2 2.8-.8 4-1.4h.1c.7-.2 1.4-.3 2.2-.3 1-.1 2 .2 3-.1h.1c.2.1.4.1.6.2.9.3 1.6.4 2.6.4.1 0 .2-.1.2-.2h.1s.2-.2.1-.3z" fill="#2a232b" stroke-width="none" opacity="1"></path><path id="SvgjsPath6133" d="M123.1 79.1c-3.4-.3-6.8 1.7-9.9 2.9-1.9.7-5.8 1-6.5 3.3-.1.3.3.5.5.2 1-1.4 2.6-1.5 4.1-2 1.3-.4 2.6-.9 3.8-1.4 2.7-1.1 5.3-1.7 8-2.4.3-.2.2-.6 0-.6z" fill="#3a353a" stroke-width="none" opacity="1"></path><path id="SvgjsPath6134" d="M108.2 86.8c.5 0 1.1-.1 1.6-.2 2.7-1 5.1-2.7 7.7-3.8 1.9-.9 3.9-1.3 6-1.3h.8c1.8.1 3.5.6 5.1 1.2 1.7.7 3.1 1.7 4.8 2.5.1 0 .2 0 .2-.1 0 0 .1 0 .1.1.2.1.4-.1.2-.3-.8-.8-1.7-1.5-2.8-2.1-1.9-1.4-4-2.7-6.2-3.4-1.2-.4-2.5-.6-3.8-.5-1.7 0-3.4.3-5.1.8-2.8.8-5.5 2-8.2 3.1-1.1.4-3.4 1-3.1 2.5.4 1.1 1.5 1.6 2.7 1.5zm16.7-6.6c.6.2 1.2.4 1.7.6-1.3-.2-2.6-.4-3.8-.3h-1.1c-3.9.2-7.4 2.4-10.8 4.1-.6.3-1.2.7-1.9.9-.2.1-.5.1-.8.1-.6 0-1.1-.3-.8-1 .2-.6 2.4-1.1 2.8-1.3 2.2-.9 4.4-1.9 6.6-2.6 1.7-.6 3.5-1 5.3-1 .8.1 1.8.2 2.8.5z" fill="#1b141c" stroke-width="none" opacity="1"></path></g></g></g><g id="svga-group-beardwrap" transform="matrix(1.0400003000000002,0,0,1.0002003000000002,0,0)"><g id="svga-group-beard-single-move" transform="matrix(1,0,0,1,-1,0)"><g id="svga-group-beard-single" transform="matrix(0.8499995000000001,0,0,0.8499995000000001,14.918356650602334,19.811783644649495)"></g></g></g><g id="svga-group-mustache-single-move" transform="matrix(1,0,0,1,0,0)"><g id="svga-group-mustache-single" transform="matrix(0.7999993000000002,0,0,0.7999993000000002,19.952936198557637,24.46305711698224)"></g></g><g id="svga-group-nose-single-move" transform="matrix(1,0,0,1,0,0)"><g id="svga-group-nose-single" transform="matrix(1,0,0,1,0,0)"><path id="SvgjsPath8635" d="M105.06 106.65c.56.92 2.64 3.61 3.09 4.9.45 1.29-.13 3.22-1.48 3.61s-3.61-.39-3.93-.19c-.32.19-1.87 2.06-2.58 1.93-.71-.13-2.64-2.13-3.03-2.13-.39 0-2.13.45-2.97.45-.84 0-2.9-.71-2.64-2.51.26-1.81 2.45-5.54 2.9-6.06.45-.52 1.48-2.32 1.74-3.42s.58-7.03.71-8.38c.13-1.35 1.35-2.97 2.58-3.09 1.23-.13 3.35.77 3.55 2.9.19 2.13.58 6.38.77 8.12.19 1.74.58 2.71 1.29 3.87z" fill="#f0c7b1" stroke-width="none" opacity="1" transform="translate(0 1)"></path><path id="SvgjsPath8636" d="M97.62 85.76c-.84 3.5-.96 7.24-1.34 10.81-.4 3.83-1.14 7.78-1.09 11.63 0 .31.48.39.55.07.78-3.52.88-7.26 1.24-10.84.39-3.82 1.1-7.79.98-11.63 0-.18-.29-.24-.34-.04z" fill="#c27b55" stroke-width="none" opacity="1" transform="translate(0 1)"></path><path id="SvgjsPath8637" d="M94.46 106.19c-1.03 1.37-1.9 2.87-2.65 4.41-.49 1-1.09 2.17-.77 3.32.53 1.89 2.93 2.49 4.5 1.58.47-.27.26-.99-.27-1-.92-.01-1.98.28-2.72-.5-.88-.94-.01-2.63.38-3.57.58-1.39 1.28-2.72 1.83-4.12.07-.19-.2-.26-.3-.12z" fill="#c27b55" stroke-width="none" opacity="1" transform="translate(0 1)"></path><path id="SvgjsPath8638" d="M94.31 113.98c2.84-.21 3.38 3.37 6.07 3.45 2.31.07 2.5-3.41 4.69-3.3.26.01.34-.35.13-.47-2.49-1.47-2.95 2.86-5.24 2.59-1.36-.16-2.32-2.16-3.54-2.73-.83-.39-1.43-.36-2.23.02-.22.09-.11.46.12.44z" fill="#c27b55" stroke-width="none" opacity="1" transform="translate(0 1)"></path><path id="SvgjsPath8639" d="M104.29 115.6c1.87.42 4.05-.16 4.49-2.24.22-1.04-.13-2.07-.67-2.95-.89-1.44-2.03-2.66-2.87-4.15-.14-.25-.49-.12-.51.14-.11 1.67 1.13 2.83 2.02 4.12.82 1.19 1.53 2.83.15 4-.63.54-1.83.44-2.6.59-.26.04-.25.43-.01.49z" fill="#c27b55" stroke-width="none" opacity="1" transform="translate(0 1)"></path><path id="SvgjsPath8640" d="M102.45 109.98c-.41-.74-1.47-.85-2.06-.26-.05.05-.24.29-.3.36-.07.09-.2.26-.23.29-.07.1-.12.21-.18.32l-.12.28c0-.01-.01.01-.03.05-.06.06-.12.13-.18.2-.18.19-.36.38-.5.6-.42.67-.08 1.42.48 1.84.87.65 2.13.13 2.74-.61.76-.89.96-2.03.38-3.07z" fill="#f8d5c3" stroke-width="none" opacity="1" transform="translate(0 1)"></path></g></g><g id="svga-group-hair-front" transform="matrix(1.0400003000000002,0,0,1.0002003000000002,-3.942029687071255,-0.007838391741564976)"><path id="SvgjsPath7847" d="M66 52.6s1.6-4.2 4.9-7.2 7.6-6.3 16.1-9.6 19.7-3.2 31.1 2.5 13 10.3 13 10.3-3.8-3.1-9.4-2.3-12.1 9.4-16.2 10.1c-4.2.7-10.3-.2-18.9-4.9S70.7 45.8 66 52.6z" fill="#2a232b" stroke-width="none" opacity="1" stroke="none"></path><path id="SvgjsPath7848" d="M111.6 51c-.1.1-.2.2-.3.2 3.6-4 4.5-10.6.2-14.5-.3-.2-.6.1-.4.4 3.8 4.7 2.5 9.8-.6 14.5v.2c-.4.3-.8.5-1.2.8 3.6-5.9 1.1-14.1-4.1-18.7-.3-.3-.7.1-.4.4 5.1 5.9 6.4 12.7 2.6 19.4-1.3.7-2.6 1.3-4 1.7 4.4-6 3.8-15-1-20.6-.2-.3-.6.1-.5.4 3.9 7.3 3.7 13.3.2 20.5-.5.1-1 .1-1.4.2 3.6-6.4 1.3-16.8-2-22.8-.2-.3-.7-.1-.6.2 2.7 6.8 5.3 15.6 1.9 22.6-.9 0-1.9-.1-3-.3-7.5-4.5-7.8-11.8-8-20.1 0-.2-.3-.2-.3 0-.8 5.2-.3 12.4 3 17-1.4-1-2.8-2-4-3.4-2.6-2.8-3.9-6-5.5-9.4-.1-.2-.3 0-.3.1.6 4.2 3.5 8.9 7.2 12.1-2-1.3-3.9-2.6-6.1-3.6 0 0 0-.1-.1-.1-2.4-1.7-4.6-3.4-6.6-5.6-.1-.2-.4 0-.3.2 1.1 1.8 2.7 3.5 4.5 4.7-4.4-1.2-9.4-.4-12.8 2.7-.2.1.1.4.2.2 9.3-7.7 18.3 3.3 26.8 6.3 7.1 2.5 12-.2 17.2-5.1.3-.4 0-.8-.3-.6zm8.1-10.1c0-.2-.3-.2-.3 0-.3 1.5-.4 2.8-1.1 4.2-.7 1.3-1.8 2.3-2.8 3.3-.1.1 0 .3.2.2 2.4-1.5 4.9-4.6 4-7.7zm9.5 6.4c-2.6-1.9-7-2.5-9.9-.9-.1.1 0 .2.1.2 3.4-.8 6.4.2 9.7 1 .2.1.3-.2.1-.3z" fill="#1b141c" stroke-width="none" opacity="1" stroke="none"></path><path id="SvgjsPath7849" d="M92 39.7s-6 .4-8.5-4.5-.8-9.3 4.3-12.1c5.1-2.9 11.2-3.3 16.1-.7s6 6.9 4.6 10.4-4.3 5.8-7.2 6.8c-3 1-9.3.1-9.3.1z" fill="#2a232b" stroke-width="none" opacity="1" stroke="none"></path><path id="SvgjsPath7850" d="M106.8 34.2c-3.4 6-10.7 6.6-16.7 4.6 0-.1 0-.1-.1-.2-3.6-1.6-5.8-4.7-4.3-8.8 1.1-3 3.7-4.6 6.6-5.4l-.9 1.2c-1.9 3.1-1.1 7.4 2.2 9.2 3.6 2 9 1.4 11.9-1.6 2.6-2.7 2.8-7.3-.4-9.6-.3-.2-.6.2-.3.5 6.6 7.4-6.5 14.7-12.1 8.9-2.4-2.5-1.7-6.4.6-8.7.1-.1.3-.2.4-.3h.2c.1 0 .2-.1.2-.3 2.2-1.7 5.1-2.1 7.8-1.9.1 0 .1-.2 0-.2-.6-.1-1.2-.2-1.8-.2l-.1-.1c-4.1-1.4-9.1-.6-12.5 2-.2.1 0 .4.2.3 3.4-1.5 6.4-2.1 9.9-2.1-1.6.3-3.1.9-4.4 1.9-4.3.3-8.3 3-9 7.6-.4 2.7.8 5.6 3.1 7 4.8 4.6 18.8 4 20.1-3.8 0-.1-.4-.3-.6 0zM86.2 38c-4.1-2.7-5-7.6-1.9-11.4.1-.2-.1-.4-.2-.2-3.8 3.6-2.9 9.8 2 11.9.1 0 .3-.2.1-.3zm16.9-10.1c-1.6.6-3.7.9-5-.5-.6-.6-.9-1.5-.7-2.4.3-1 1.6-2.3 2.7-2.2.3 0 .3-.5 0-.5-2.3-.1-4.2 2.6-3.3 4.7 1.2 2.6 4.3 2.5 6.3 1.2.3-.1.2-.4 0-.3z" fill="#1b141c" stroke-width="none" opacity="1" stroke="none"></path><path id="SvgjsPath7851" d="M99 33c-1.9-.5-3.8-1.4-4.5-3.5-.8-2.4.4-4.5 2.3-5.9.2-.2.1-.6-.2-.5-5.5 2-3.6 11.4 2.4 10.2.2 0 .2-.3 0-.3zm-2.9.4c-1.5-.7-2.8-1.6-3.1-3.4-.3-1.4-.3-3.8.7-4.8.1-.1 0-.2-.1-.1-1.3 1.1-1.4 3.2-1.1 4.8.3 2 1.6 3.3 3.5 3.8.2.1.3-.2.1-.3zm7.7-8.9c-.2-.2-.4 0-.3.2.9 1.9 2.4 4.8-.3 6-2.2 1-4.9.4-6.2-1.7-.2-.3-.5 0-.4.2 1.2 2.7 4.8 3.5 7.3 2 2.7-1.5 1.6-4.9-.1-6.7zm-1.5 1.3c-.6-.8-1.7-.9-2.6-.7-.2 0-.2.5.1.4.6 0 1.3.1 1.8.5.4.4.6 1.1.2 1.6-.1.1.1.3.2.2.8-.4.8-1.4.3-2zm5.9 2.8c-.1-.3-.6-.3-.6.1-.1 5.2-4.8 6.7-9.1 7.7-.2 0-.1.3.1.3 3.8-.5 11-2.7 9.6-8.1zm-13.8 8c-2.9-1.4-5.6-3.5-5.3-7.1 0-.2-.4-.3-.4-.1-.6 3.7 2.2 6.6 5.6 7.5.1.1.3-.2.1-.3zm12.5 2.3c-.2-.2-.6-.1-.5.2 1.7 4.7 1.4 8.8-1.2 13.2-.1.2.1.4.3.2 3.3-3.5 4-9.5 1.4-13.6zm2-2.4c-.1-.1-.4 0-.3.2 2.3 3.2 3.2 6.5 3.1 10.4 0 .2.3.3.4 0 .7-3.9-.7-7.8-3.2-10.6zm6.5 3.5c-.1-.2-.4-.1-.4.1.4 1.9.2 3.9-.5 5.7-.1.2.2.3.3.1 1.1-1.8 1.2-3.9.6-5.9zm-11.2 2.4c-.1-.2-.4-.2-.4.1-.1 3.2-.2 6.3-1.2 9.4-.1.2.2.3.3.1 1.4-3 2.2-6.5 1.3-9.6zm-3.8 5.9c0-.2-.3-.1-.3 0 0 1.3-.2 2.6-.4 4 0 .2.2.3.3.1.7-1.2.7-2.7.4-4.1zM98 43c-.1-.2-.4-.1-.3.1.7 3.4.7 6.5.1 9.9 0 .2.2.2.2.1 1.1-3.3 1.1-6.9 0-10.1zm26.2 1.2c-1-.5-2.2-.2-3.1.3-.2.1 0 .5.2.4.9-.4 1.8-.3 2.8-.3.1 0 .2-.3.1-.4zm-44.7-3.9c-3.7 1.5-7.9 3.5-9.6 7.3-.1.1.1.2.2.1 2.4-3.6 5.8-5.3 9.5-7.2.1-.1.1-.3-.1-.2z" fill="#3a353a" stroke-width="none" opacity="1" stroke="none"></path></g><g id="svga-group-glasses-single-move" transform="matrix(1,0,0,1,0,0)"><g id="svga-group-glasses-single" transform="matrix(1.1000003000000003,0,0,1.1000003000000003,-10.015030197588374,-9.670770665667362)"><path id="SvgjsPath7514" d="M72.1 99.8 84.7 90l.2.2-12.7 9.8-.1-.2zm6.2-1-.2-.2 9.8-7.6.2.2-9.8 7.6zm-7.8 0-.2-.2 9.8-7.6.2.2-9.8 7.6z" fill="#ffffff" stroke-width="none" opacity="0.5"></path><path id="SvgjsPath7515" d="M91 100.5H67.8c-.6 0-1.1-.5-1.1-1.1v-8.7c0-.6.5-1.1 1.1-1.1h24.3c.6 0 1.1.5 1.1 1.1v7.6c0 1.3-1 2.2-2.2 2.2z" fill="#ffffff" stroke-width="none" opacity="0.27"></path><path id="SvgjsPath7516" d="m113.5 99.8 12.6-9.8.2.2-12.6 9.8-.2-.2zm6.3-1-.2-.2 9.8-7.6.2.2-9.8 7.6zm-7.8 0-.2-.2 9.8-7.6.2.2-9.8 7.6z" fill="#ffffff" stroke-width="none" opacity="0.5"></path><path id="SvgjsPath7517" d="M108.9 100.2h23.3c.6 0 1.1-.5 1.1-1.1v-8.7c0-.6-.5-1.1-1.1-1.1h-24.3c-.6 0-1.1.5-1.1 1.1V98c-.1 1.2.9 2.2 2.1 2.2z" fill="#ffffff" stroke-width="none" opacity="0.27"></path><path id="SvgjsPath7518" d="M93.2 92.2c2.3 0 4.5-.7 6.8-.7 2.2 0 4.6.7 6.8.7v1.3c-2.2 0-4.6-.7-6.8-.7-2.3 0-4.5.7-6.8.7v-1.3z" fill="#070201" stroke-width="none" opacity="1"></path><path id="SvgjsPath7519" d="M92.1 89.3H65v1.9h1.3v8.3c0 .8.7 1.5 1.5 1.5H91c1.4 0 2.6-1.2 2.6-2.6v-7.6c0-.9-.7-1.5-1.5-1.5zm.7 9c0 1-.8 1.8-1.8 1.8H67.8c-.4 0-.7-.3-.7-.7v-8.7c0-.4.3-.7.7-.7h24.3c.4 0 .7.3.7.7v7.6z" fill="#26120b" stroke-width="none" opacity="1"></path><path id="SvgjsPath7520" d="M135.1 89.3H108c-.8 0-1.5.7-1.5 1.5v7.6c0 1.4 1.2 2.6 2.6 2.6h23.3c.8 0 1.5-.7 1.5-1.5v-8.3h1.3l-.1-1.9zM133 99.4c0 .4-.3.7-.7.7H109c-1 0-1.8-.8-1.8-1.8v-7.6c0-.4.3-.7.7-.7h24.3c.4 0 .7.3.7.7l.1 8.7z" fill="#26120b" stroke-width="none" opacity="1"></path></g></g></g></g></g><rect id="svga-credit-rect" width="200" height="15" x="0" y="185" fill="#ecf0f1" opacity="0.5" style="display: none;"></rect><text id="svga-credit-text" font-family="Avenir Next, Roboto, Helvetica, Arial, sans-serif" font-size="10px" text-anchor="start" font-weight="400" size="10px" anchor="start" weight="400" fill="#333333" x="33.40447998046875" y="182.60824704170227" style="display: none;"><tspan id="SvgjsTspan3125" dy="13" x="33.40447998046875">Created on AvatarMaker.com</tspan></text></g></svg>