<svg xmlns="http://www.w3.org/2000/svg" version="1.1" width="600px" height="600px" viewBox="0 0 200 200" style="overflow:hidden!important;"><defs id="SvgjsDefs2848"></defs><g id="svga-group-wrapper"><g id="svga-group-backs-single"><path id="SvgjsPath6365" d="M0 151.2s23.5-5.1 41.7 13.1S59.6 192.1 87 200H0v-48.8z" fill="#ff0000" stroke-width="none" opacity="1"></path><path id="SvgjsPath6366" d="M133.6 180.5c-23.4-5.2-55.2-7.3-78.3-46.1S0 100 0 100v51.2s23.5-5.1 41.7 13.1S59.6 192.1 87 200h80.9s-10.9-14.4-34.3-19.5z" fill="#ff6700" stroke-width="none" opacity="1"></path><path id="SvgjsPath6367" d="M170.8 156c-37.1 6.4-73.1-10.7-84.6-38.1-17-40.6-35.4-62.5-53.5-65-17.9-2.5-32.8 0-32.8 0V100s32.3-4.5 55.3 34.4 54.9 41 78.3 46.1 34.3 19.5 34.3 19.5H200v-50.1s-13.7 3.4-29.2 6.1z" fill="#ffb600" stroke-width="none" opacity="1"></path><path id="SvgjsPath6368" d="M149.1 124.2c-28.7-13.4-33-30-37.2-43.8-4.2-13.7-16.3-50-45.7-65.3S0 8 0 8v45s14.9-2.5 32.8 0c18.1 2.5 36.4 24.5 53.5 65 11.5 27.4 47.5 44.5 84.6 38.1 15.5-2.7 29.2-6.1 29.2-6.1v-14.3c-.1-.1-22.3 1.9-51-11.5z" fill="#378c00" stroke-width="none" opacity="1"></path><path id="SvgjsPath6369" d="M170.3 103c-17.6-9.8-25.8-29.7-34.3-63.3C127.5 6 100 0 100 0H0v8s36.8-8.2 66.1 7.2 41.5 51.6 45.7 65.3 8.5 30.4 37.2 43.8c28.7 13.4 50.9 11.4 50.9 11.4v-21.2c.1-.1-12-1.7-29.6-11.5z" fill="#00b1ba" stroke-width="none" opacity="1"></path><path id="SvgjsPath6370" d="M166.1 37.8C152.1 27.3 149.9 0 149.9 0H100s27.5 6 36 39.6 16.6 53.5 34.3 63.3 29.7 11.4 29.7 11.4V61.1s-19.8-12.9-33.9-23.3z" fill="#0530e2" stroke-width="none" opacity="1"></path><path id="SvgjsPath6371" d="M149.9 0s2.1 27.3 16.2 37.8S200 61.1 200 61.1V0h-50.1z" fill="#8900ea" stroke-width="none" opacity="1"></path><path id="SvgjsPath6372" d="M74.2 196.2c-2.6-1.1-5-2.4-7.4-3.9l-1.7-1.2c-.6-.4-1.1-.9-1.7-1.3-.5-.4-1.1-.9-1.7-1.3-.5-.5-1-.9-1.6-1.4-.5-.5-1.1-.9-1.6-1.4l-1.5-1.5c-1-1-2-2.1-3-3.1-3.9-4.4-7.2-9.2-10.5-14.1-1.7-2.4-3.2-5-5.1-7.4-.5-.6-.9-1.2-1.4-1.8-.5-.6-1-1.2-1.6-1.8l-.8-.8-.9-.8c-.6-.5-1.3-1-1.9-1.4-2.7-1.7-5.7-2.9-8.7-3.6s-6.1-1-9.2-1c-3.1 0-6.1.3-9 .9-1.7.3-3.3.7-5 1.2v1.6c4.7-.2 9.3-.2 13.8.2 2.8.3 5.6.7 8.3 1.4 2.7.7 5.2 1.7 7.7 2.9 1.2.6 2.4 1.3 3.5 2.1.6.4 1.1.8 1.6 1.3.5.4 1 1 1.6 1.5 2.1 2 4 4.2 5.8 6.5 3.5 4.7 6.4 9.8 9.7 14.8 1.7 2.5 3.4 5 5.4 7.3.5.6 1 1.1 1.5 1.7s1.1 1.1 1.7 1.6c.6.5 1.1 1.1 1.7 1.5l1.8 1.4c1.9 1.5 3.9 2.7 6 3.9h14.6c-.9-.3-1.7-.6-2.6-.9-2.6-1.1-5.2-2-7.8-3.1zm82.6-11.6c-.5-.3-1.1-.6-1.6-.9l-1.6-.8c-1.1-.5-2.2-1.1-3.3-1.6l-3.4-1.4c-1.1-.5-2.3-.9-3.4-1.3-4.6-1.7-9.3-3-14-4-2.4-.6-4.8-.9-7.1-1.3-2.4-.3-4.8-.7-7.2-.9-2.4-.3-4.8-.5-7.2-.7-1.2-.1-2.3-.2-3.4-.3-1.1-.2-2.2-.3-3.3-.6-8.8-1.9-17.1-6.4-24.4-12.2-7.3-5.8-13.6-13.1-19-20.9-2.7-3.9-5.1-8-7.4-12.1-1.2-2.1-2.3-4.2-3.4-6.2l-1.7-3.1c-.6-1.1-1.2-2.2-1.9-3.2-2.8-4.1-6.3-7.9-10.4-10.7-2-1.5-4.2-2.7-6.4-3.8-2.2-1.1-4.6-1.9-6.9-2.7-2.4-.8-4.8-1.2-7.2-1.6-2.4-.4-4.8-.6-7.3-.7-1.8 0-3.5 0-5.3.1v2c6.4.5 12.6 1.7 18.5 3.8 2.1.8 4.2 1.7 6.2 2.8 2 1.1 4 2.2 5.8 3.6.9.6 1.8 1.4 2.6 2.1.8.8 1.7 1.5 2.5 2.3l1.2 1.2 1.1 1.3c.8.8 1.4 1.7 2.2 2.6.7.9 1.3 1.8 2 2.8.7 1 1.3 2 2 3 1.4 2 2.7 3.9 4.1 5.9 2.8 3.9 5.6 7.8 8.5 11.6 5.7 7.7 11.5 15.2 18.5 22 3.5 3.4 7.3 6.5 11.5 9s8.8 4.5 13.7 5.7c1.2.3 2.4.5 3.7.8 1.2.2 2.5.4 3.7.5 2.3.3 4.7.6 7 .9 2.3.3 4.6.7 7 1.1 2.3.4 4.6.8 6.9 1.3 9.2 1.8 18.1 4.4 26.5 8.3 4.2 1.9 8.2 4.3 12.1 6.9l2.9 2c.9.7 1.8 1.5 2.8 2.2l.9.7h1.9c-5.5-6.2-11.9-11.5-19-15.5zm-6.8-28.8c-5.6-.1-11.3-.7-16.8-1.7-5.5-1.1-10.8-2.7-15.9-5.1-10-4.9-18.3-12.8-24.3-22.6-1.5-2.4-3-4.9-4.3-7.4-1.4-2.5-2.7-5.1-4-7.7-2.5-5.2-4.9-10.5-7.3-15.8-1.2-2.6-2.4-5.3-3.7-7.9-1.2-2.6-2.5-5.2-3.9-7.8-2.8-5.2-6-10.2-9.9-14.7-4-4.5-8.7-8.4-14.1-11.2-5.3-2.9-11.1-4.8-17-5.8-.7-.1-1.5-.3-2.2-.4l-2.2-.2-2.2-.2h-4.4l-2.2.1c-1.5 0-3 .2-4.4.4-.7.1-1.5.2-2.2.3l-2.2.4c-1.4.3-2.9.6-4.3 1.1-.8.2-1.7.5-2.5.8v1.5c9.4-1.9 19-1.9 28.2.2 1.4.3 2.7.6 4 1.1l2 .6 1 .3 1 .4c1.3.5 2.6 1 3.9 1.6l3.7 1.9c.6.3 1.2.7 1.8 1 .6.4 1.2.7 1.8 1.1l1.6.9 1.7 1.2c2.2 1.7 4.3 3.6 6.2 5.6 7.9 8 14 17.9 19.1 28.3 2.5 5.2 4.9 10.5 7.2 15.8 2.4 5.3 4.7 10.6 7.5 15.8 2.7 5.2 6 10.3 10.2 14.6 4.1 4.4 9 8 14.4 10.8 10.7 5.6 22.9 7.9 34.7 8 11.9 0 23.6-1.8 34.9-5 5.1-1.5 10.2-3.2 15.1-5.2v-2.8c-5.3 1.6-10.7 3.1-16.1 4.2-11.2 2.3-22.6 3.6-33.9 3.5zm41.1-20.2-2.1-.1-2.1-.1c-.7 0-1.4-.1-2.1-.2-2.9-.2-5.6-.7-8.5-1.1-2.8-.6-5.6-1.1-8.3-2-2.8-.7-5.4-1.7-8.1-2.6-1.3-.5-2.6-1.1-3.9-1.7-1.3-.6-2.6-1-3.9-1.7-2.5-1.3-5.1-2.5-7.5-3.9-1.2-.7-2.4-1.5-3.6-2.2-1.1-.8-2.4-1.6-3.5-2.4-2.3-1.7-4.4-3.5-6.5-5.5-4.1-4-7.6-8.5-10.6-13.5-2.9-5-5.2-10.3-7.2-15.7-2-5.4-3.5-11-5.2-16.6-.8-2.8-1.7-5.6-2.6-8.4-.9-2.8-1.9-5.6-3-8.3-1.1-2.7-2.4-5.5-3.8-8.1-1.4-2.6-2.9-5.2-4.5-7.7-1.7-2.5-3.4-4.9-5.3-7.2s-4-4.5-6.2-6.6c-4.4-4.1-9.6-7.5-15.1-10.1C61.8 7.3 56 5.5 50 4.6c-5.9-.9-11.9-1.1-17.8-.8-3 .1-5.9.4-8.8.8-1.5.2-2.9.4-4.4.7l-4.3.8c-2.9.7-5.7 1.3-8.6 2.1-2 .6-4.1 1.2-6.1 1.9v.8C10.7 9 21.5 7.6 32.3 7.8c5.7 0 11.4.5 16.9 1.6 5.5 1.1 10.9 2.8 15.9 5.2 2.5 1.2 4.9 2.5 7.2 4.1 2.3 1.6 4.5 3.2 6.6 5.1 4.2 3.7 7.9 8 11.2 12.6 3.2 4.7 6.2 9.6 8.6 14.7 2.4 5.2 4.6 10.5 6.6 16 2 5.4 4.1 10.9 6.2 16.3 1.1 2.7 2.2 5.4 3.4 8.1.6 1.3 1.3 2.6 1.9 4 .7 1.3 1.3 2.6 2.1 3.9 1.4 2.6 2.9 5.1 4.6 7.5 1.6 2.5 3.5 4.8 5.4 7.1 3.9 4.5 8.4 8.6 13.4 11.8 2.5 1.7 5.1 3 7.8 4.4 1.3.7 2.7 1.2 4.1 1.9 1.4.6 2.7 1.2 4.1 1.7 5.6 2 11.4 3.5 17.3 4.3 3 .3 5.9.6 8.9.7.7 0 1.5.1 2.2.1l2.2-.1 2.2-.1 2.2-.2c2.2-.2 4.5-.5 6.7-.9v-2c-2.3.2-4.5.2-6.8.2l-2.1-.2zM118.9 6.8c1.3 1.3 2.5 2.7 3.6 4.1 2.2 2.9 4.4 5.9 6.3 9 1.9 3.1 3.6 6.4 5 9.8l1 2.6c.3.9.5 1.8.8 2.7.3.9.4 1.8.6 2.7.2.9.4 1.8.6 2.8 1.3 7.5 2.5 15 4.1 22.5.9 3.7 1.7 7.5 3 11.2.3.9.6 1.8 1 2.8l1.1 2.7.6 1.3.7 1.3c.4.9.9 1.8 1.3 2.6 1.9 3.5 4.2 6.8 6.9 9.7 2.7 3 5.8 5.6 9.3 7.7 3.5 2.1 7.4 3.5 11.2 4.4 3.9.9 7.7 1.4 11.6 1.6l2.9.1h2.9c1.9 0 3.8-.1 5.8-.2.3 0 .6-.1.9-.1v-2.4c-4.1-.3-8.1-.8-12.1-1.4-.9-.1-1.8-.3-2.7-.5l-1.4-.2-1.4-.3c-1.8-.3-3.6-.8-5.3-1.3-3.5-1.1-6.7-2.4-9.7-4.3-6.1-3.7-11-9-14.9-15.2-.5-.8-.9-1.6-1.4-2.4l-.7-1.2-.6-1.2-1.2-2.5-1.1-2.5c-.4-.8-.8-1.7-1.1-2.6l-1.1-2.6c-.7-1.7-1.3-3.5-1.9-5.3-2.4-7.1-4.1-14.5-5.1-22-.5-3.8-1-7.6-2-11.4-.9-3.8-2.2-7.5-4-11-1.8-3.5-3.9-6.8-6.5-9.8-1.3-1.5-2.6-2.9-4-4.3-1.4-1.3-2.8-2.6-4.3-3.8h-5.9c1.1.9 2.2 1.9 3.3 2.9 1.4 1.3 2.7 2.6 3.9 4zm32.4-1.4c.2 2.4.4 4.9 1 7.3.2 1.2.6 2.4.8 3.6.4 1.2.7 2.4 1.1 3.5.7 2.3 1.7 4.6 2.8 6.8 1.2 2.2 2.5 4.3 4 6.2.7 1 1.5 1.9 2.3 2.9.4.5.8.9 1.2 1.4s.8.9 1.2 1.4c.9.8 1.7 1.7 2.5 2.6l1.2 1.3 1.2 1.3c.8.9 1.6 1.7 2.4 2.7.8.9 1.7 1.7 2.5 2.6.8.9 1.7 1.7 2.6 2.5.9.8 1.8 1.7 2.8 2.3l3 2.1c1.1.6 2.1 1.2 3.2 1.8 1.1.5 2.2 1 3.4 1.5 1.1.4 2.3.8 3.5 1.2 1.2.3 2.4.7 3.6.9.8.2 1.6.3 2.4.4v-3.1c-1.6-.6-3.1-1.2-4.6-1.9l-3.1-1.5-3.1-1.5c-1-.6-2-1.1-3-1.7-1-.6-2-1.2-3-1.7s-2-1.2-3-1.7-2-1.1-3-1.8c-1-.6-1.9-1.3-2.9-2-.9-.7-1.8-1.5-2.7-2.3-.4-.4-.9-.8-1.3-1.2l-1.2-1.3c-.8-.9-1.6-1.8-2.3-2.7-1.4-1.8-2.6-3.8-3.6-5.9-2-4.2-3.4-8.5-4.6-12.9-1.1-4.4-1.6-9-2.1-13.5-.2-1.7-.3-3.3-.4-5h-5c0 1.8 0 3.6.2 5.4z" fill="#ffffff" stroke-width="none" opacity="1"></path></g><g id="svga-group-humanwrap-move" transform="matrix(1,0,0,1,0,0)"><g id="svga-group-humanwrap" transform="matrix(1,0,0,1,0,0)"><g id="svga-group-hair-back-move" transform="matrix(1,0,0,1,0,0)"><g id="svga-group-hair-back" transform="matrix(1,0,0,1,0,0)"><path id="SvgjsPath3931" d="M121 39.3s4.6-18-21.5-18.6c0 0-6.7-6.5-20.5-1.7 0 0-12.7.4-19.8 11.7 0 0-15 6.3-15.9 32.4 0 0-5.2 12.7 4.4 33.8s.4 39.5-4.4 48-7.3 26.7 6.9 36.8 10.4 21.7 9.4 24.4c0 0 12.5-5 13.4-12.7s-3.1-6.5-1.7-12.1 7.1-5.4 10.2-14.4c3.1-9 0-23-1.9-31.5s-5.4-42.8 3.8-55.1 25.3-23 30.7-28.4c5.4-5.4 6.9-12.6 6.9-12.6z" fill="#7f6f00" stroke-width="none" opacity="1" stroke="none"></path><path id="SvgjsPath3932" d="M101.4 30s-1.1-14.2-20.7-10.3S57 51 59.1 62.7c0 0 .4-24.5 11.5-34.3s26.3-7.6 30.8 1.6z" fill="#8e7e0c" stroke-width="none" opacity="1" stroke="none"></path><path id="SvgjsPath3933" d="M83.5 37.7S82 35.1 85 31.6c3-3.5 15.7-4.9 21.4-2.7s4.8 3.7 5 4.7c0 0-18-.3-27.9 4.1z" fill="#000000" stroke-width="none" opacity="1"></path></g></g><g id="svga-group-humanbody-back"><path id="SvgjsPath3152" d="m168.5 219.5-1.7-21.5s.7-9-8.8-15.3-23.4-10.1-29.5-14.2c-6.1-4.1-9.2-4.5-9-16.9s.9-40.3.9-40.3H79.6s.7 27.9.9 40.3c.2 12.4-2.9 12.8-9 16.9-6.1 4.1-20 7.9-29.5 14.2S33.2 198 33.2 198l-1.6 21.5h136.9z" fill="#f3d4cf" stroke-width="none" opacity="1" stroke="none"></path></g><g id="svga-group-chinshadow-single"><path id="SvgjsPath5333" d="M80.4 155.4c5.9 5.8 12.6 9.3 19.6 9.3s13.7-3.5 19.6-9.3c-.1-1.1-.1-2.4-.1-3.8.2-12.4.9-40.3.9-40.3H79.6s.7 27.9.9 40.3c0 1.4 0 2.7-.1 3.8z" fill="#d4958a" stroke-width="none" opacity="0.65"></path></g><g id="svga-group-humanbody-front"><path id="SvgjsPath3153" d="M73.8 175.9c5.1 2.9 11.8 5.2 17.6 5.7.4 0 .4-.6.1-.7-2.8-1.1-5.9-1.7-8.8-2.6-2.9-.9-5.8-2-8.8-2.7-.1-.1-.3.2-.1.3zm35.2 6.2c5.3-.6 11.3-3 15.9-5.8.3-.2.1-.6-.2-.5-2.6.9-5.2 2-7.8 2.9-2.6.9-5.4 1.5-8 2.5-.5.1-.5.9.1.9z" fill="#d4958a" stroke-width="none" opacity="1" stroke="none"></path><path id="SvgjsPath3154" d="m168.4 219.4-2.1-21.4c0-2.2-.5-4.5-1.5-6.6-.9-2.1-2.3-3.9-3.9-5.5s-3.5-2.8-5.5-4c-2-1.2-4.1-2.2-6.2-3.1-4.2-1.9-8.6-3.6-12.9-5.4-2.2-.9-4.3-1.9-6.4-3-1.1-.6-2.1-1.2-3-1.9-1-.6-2-1.2-3-1.9s-2-1.5-2.8-2.6c-.8-1-1.3-2.2-1.7-3.4-.7-2.4-.8-4.8-.8-7.2 0-4.7.2-9.4.3-14.1.2-9.4.6-18.7.9-28l.6.6-20.4-.2-20.4-.1.3-.3.7 28c.1 4.7.3 9.3.4 14 0 2.4-.1 4.7-.8 7.1-.3 1.2-.9 2.3-1.6 3.3-.8 1-1.7 1.8-2.7 2.5s-2 1.3-2.9 2c-.9.6-1.9 1.3-3 1.9-2.1 1.2-4.2 2.1-6.4 3.1-4.3 1.9-8.6 3.6-12.8 5.6-2.1 1-4.2 2.1-6.1 3.2-2 1.2-3.8 2.4-5.4 4-1.6 1.6-2.9 3.4-3.8 5.4-.4 1-.8 2.1-1 3.1-.2 1.1-.4 2.2-.3 3.2v.2l-1.5 21.5-1-1.1 34 .1c11.3 0 22.7.1 34.1.2l34.2.3 34.4.5zm.2.2-34 .4-34.2.3c-11.4.1-22.9.2-34.4.2l-34.4.1h-1.1l.1-1.1 1.7-21.5v.1c-.1-5.1 2.2-9.8 5.7-13.3 1.7-1.7 3.8-3.1 5.8-4.3 2-1.2 4.2-2.2 6.3-3.2 4.3-2 8.7-3.7 13-5.4 2.1-.9 4.3-1.8 6.3-2.9 1-.5 1.9-1.1 3-1.8 1-.6 2-1.2 2.9-1.9.9-.6 1.8-1.4 2.4-2.2.7-.9 1.2-1.9 1.5-2.9.6-2.1.8-4.5.8-6.8 0-4.6-.1-9.3-.2-14l-.6-28v-.3h.3l20.4-.1 20.4-.2h.6v.6c-.1 9.3-.2 18.7-.4 28-.1 4.7-.2 9.4-.2 14 .1 2.3.2 4.6.8 6.7.3 1.1.8 2 1.4 2.9.6.8 1.4 1.6 2.4 2.2.9.6 1.9 1.3 2.9 1.9 1 .7 1.9 1.3 2.9 1.8 2 1.1 4.1 2.1 6.3 3 4.3 1.8 8.6 3.6 12.9 5.6 2.1 1 4.2 2.1 6.2 3.3 2 1.2 4 2.6 5.7 4.3 3.4 3.4 5.6 8.1 5.4 13v-.1l1.4 21.6zm-112.8-.4 1.9-13.8.1 13.8h-2zm88.6 0-1.9-13.8-.1 13.8h2z" fill="#c5796d" stroke-width="none" opacity="1" stroke="none"></path></g><g id="svga-group-clothes-single"><path id="SvgjsPath5722" d="M172.66 220s-.67-15.28-1.34-22.24-2.81-9.65-2.81-9.65-.4-1.88-2.81-5.36-31.62-13.13-31.62-13.13c-.8-4.42-5.63-5.49-5.63-5.49 1.21-4.82-1.21-10.32-2.01-10.99-.8-.67-1.34-1.61-1.34-1.61.54-8.57-3.06-9.71-3.06-9.71s-2.72 3.41-5.29 5.13c-2.57 1.71-14.22 5.65-20.39 4.63-6.17-1.03-11.48-4.28-13.71-6.17s-4.69-3.58-4.69-3.58-3.6 1.13-3.06 9.71c0 0-.54.94-1.34 1.61-.8.67-3.22 6.16-2.01 10.99 0 0-4.82 1.07-5.63 5.49 0 0-29.2 9.65-31.62 13.13s-2.81 5.36-2.81 5.36-2.14 2.68-2.81 9.65S27.34 220 27.34 220h145.32z" fill="#09aac5" stroke-width="none" opacity="1"></path><path id="SvgjsPath5723" d="m172.74 219.49-.02-.51-.04-1.01-.08-2.03-.17-4.05-.4-8.1c-.18-2.7-.27-5.39-.65-8.11-.19-1.35-.47-2.69-.86-4.01-.4-1.29-.85-2.54-1.65-3.74-.51-1.72-1.34-3.15-2.23-4.59-.25-.37-.41-.69-.76-1.09-.34-.39-.69-.64-1.06-.9-.73-.5-1.47-.92-2.23-1.32-3.03-1.58-6.15-2.87-9.28-4.15-6.13-2.46-12.33-4.72-18.57-6.89-.15-.6-.35-1.19-.67-1.73-.38-.68-.87-1.32-1.44-1.83-.57-.52-1.2-.97-1.86-1.33-.43-.23-.87-.41-1.32-.58.34-2.14.1-4.29-.42-6.31-.31-1.14-.69-2.25-1.24-3.33-.14-.27-.29-.54-.49-.82l-.16-.21c-.08-.09-.16-.17-.24-.25l-.28-.25c-.21-.2-.41-.44-.6-.69 0-.03.02-.06.02-.09 0-.54-.05-1.05-.08-1.58-.03-.52-.13-1.05-.21-1.57-.01-.05-.02-.11-.04-.16-.06-.73-.16-1.47-.33-2.2-.2-.91-.53-1.82-1-2.67-.51-.84-1.07-1.64-2.2-2.12a.498.498 0 0 0-.58.15l-.03.04c-1.27 1.57-2.67 3.09-4.22 4.37-.78.65-1.59 1.12-2.53 1.54-.92.43-1.88.79-2.84 1.15-3.86 1.35-7.87 2.46-11.95 2.77-1.01.06-2.04.09-3.03-.03-1-.09-2-.34-2.99-.58-1.98-.52-3.9-1.25-5.74-2.14-1.83-.91-3.62-1.95-5.2-3.22a70.454 70.454 0 0 0-4.96-3.78l-.02-.02a.277.277 0 0 0-.25-.03c-.99.43-1.56 1.21-2.03 2.02-.45.82-.75 1.7-.93 2.6-.19.9-.28 1.8-.33 2.71-.04.87-.02 1.73.01 2.6-.27.43-.59.85-.95 1.2-.1.1-.19.17-.3.27-.13.13-.24.26-.32.39-.18.26-.32.51-.45.77-.53 1.04-.89 2.14-1.17 3.25-.47 1.91-.67 3.92-.38 5.9 0 .23.01.46.01.7-.55.17-1.07.38-1.58.64-.64.33-1.24.74-1.78 1.23-.55.48-1.01 1.06-1.38 1.7-.35.56-.55 1.18-.71 1.82-6.35 2.06-12.66 4.24-18.91 6.6-3.16 1.22-6.3 2.45-9.37 3.97-.77.38-1.53.79-2.28 1.29-.38.26-.75.5-1.12.92-.21.23-.31.4-.44.57l-.36.54c-.47.72-.92 1.46-1.33 2.23-.38.74-.72 1.44-.99 2.33-.44.63-.71 1.19-.99 1.8-.29.65-.53 1.31-.75 1.98-.42 1.34-.72 2.7-.94 4.07-.42 2.76-.57 5.43-.78 8.14-.37 5.4-.67 10.8-.94 16.21v.04c0 .53.43.96.96.97h.01c12.17.04 24.36.12 36.53.06 12.17-.05 24.37-.03 36.5-.16l36.33-.35 36.04-.45c.06-.25.02-.39.02-.56zm-41.24-52.78c.46.4.84.88 1.14 1.39.32.51.48 1.09.63 1.67l.02.07c.05.18.17.32.32.43-1.79 2.49-3.77 4.86-6.09 6.79-.05.04-.11.08-.16.12.08-.59.15-1.18.14-1.78.02-.93-.1-1.86-.3-2.77-.22-.91-.53-1.81-.98-2.65-.27-.51-.58-.98-.94-1.43.34-.24.67-.48.99-.74.56-.44 1.08-.95 1.57-1.49.31-.38.6-.74.86-1.16.43.14.87.31 1.27.52.56.27 1.08.62 1.53 1.03zm-9.86 9.32c-.09-1.1-.33-2.18-.7-3.22-.2-.58-.45-1.13-.74-1.67.84-.31 1.67-.65 2.48-1.06.58-.28 1.15-.6 1.7-.94.33.42.65.88.92 1.34.42.75.78 1.54 1.06 2.37.24.84.45 1.7.56 2.58.08.44.07.89.13 1.33l.02.62a34.303 34.303 0 0 1-6.06 3.81c.22-.61.4-1.25.5-1.9.22-1.06.22-2.17.13-3.26zm-21.57-3.22c-.54 0-1.08 0-1.62-.03.55.17 1.11.3 1.68.42l.03.23-.11 3.34c-.04 1.12-.05 2.25-.12 3.34-.09 1.1-.21 2.27-.12 3.42.04.71.15 1.43.34 2.11H100c-1.63-.11-3.27-.14-4.89-.42-.81-.12-1.63-.19-2.43-.36l-2.41-.51-1.21-.24-1.19-.32-1.43-.38c-.02-.7-.02-1.39.07-2.06.07-.52.17-1.02.34-1.48.06-.18.15-.33.24-.49.35.1.7.19 1.05.27 3.14.73 6.35 1.11 9.54.94-3.12-.66-6.16-1.45-9.12-2.43-.27-.09-.53-.2-.8-.3-.1-1.99-.05-3.99.33-5.96.19-1.07.46-2.12.79-3.16.26-.8.57-1.61.97-2.35.53.18 1.05.36 1.59.5 2.49.71 5.04 1.2 7.62 1.33-2.41-.94-4.78-1.83-7.11-2.8-.61-.26-1.21-.52-1.82-.79-.04-.79-.01-1.59.07-2.38.12-1.13.32-2.25.46-3.37.27-2.04.62-4.08.95-6.14.01 0 .01.01.02.01 2.38 1.61 4.94 2.97 7.61 4.1.23.1.47.17.7.26 0 .02.01.03.01.05.19.88.33 1.78.47 2.67.13.89.28 1.79.33 2.7.06.9.05 1.82-.18 2.69-.1.43-.32.84-.43 1.32-.13.46-.16.93-.22 1.39-.16 1.62-.09 3.25.15 4.88zm-13.99 10.5-.6-.16c-.79-.23-1.57-.51-2.35-.75-.62-.19-1.24-.4-1.85-.63.02-.72.13-1.43.33-2.1.14-.47.31-.92.51-1.36.09-.2.2-.41.31-.6.36.17.71.33 1.07.48.9.34 1.8.66 2.72.94-.06.16-.12.32-.17.49a6.26 6.26 0 0 0-.21 1.71c.01.66.1 1.32.24 1.98zm-5.1-1.66c-.06-.02-.13-.04-.19-.07-1.92-.72-3.8-1.55-5.61-2.52-.02-.42-.04-.85.01-1.26.03-.62.15-1.24.31-1.83.16-.59.38-1.17.65-1.71.09-.17.19-.33.29-.5.85.77 1.76 1.47 2.69 2.12.81.53 1.65 1 2.51 1.43-.1.22-.19.45-.28.68-.19.5-.31 1.01-.38 1.54-.1.7-.1 1.42 0 2.12zm-6.07-2.74c-.99-.54-1.96-1.12-2.88-1.78-.65-.47-1.29-.96-1.9-1.48.15-.55.3-1.09.5-1.61.22-.67.53-1.3.84-1.92.31-.62.67-1.21 1.07-1.77.16-.22.33-.43.5-.65.67 1.08 1.47 2.07 2.32 3 .12.13.25.24.37.36-.14.26-.26.53-.38.81-.25.62-.45 1.27-.55 1.93-.16 1.05-.11 2.11.11 3.11zm14.89-14.46c-1.55-.7-3.07-1.44-4.5-2.32l-.03-.47c0-.59.04-1.19.07-1.78.12-1.18.28-2.35.49-3.49.19-1.15.48-2.28.91-3.36.22-.54.46-1.07.75-1.57.23-.42.51-.81.83-1.17.99.8 2.03 1.55 3.08 2.27-.8 1.97-1.32 4.05-1.64 6.16-.26 1.91-.15 3.84.04 5.73zm-1.62-14.25c-.9.65-1.59 1.57-2.09 2.55-.57 1.1-.93 2.29-1.14 3.49-.24 1.21-.21 2.44-.17 3.64l.17 2.04c-.42-.25-.82-.53-1.23-.8-.48-.37-.98-.73-1.44-1.13-.77-.61-1.49-1.3-2.19-2 .05-1.95.46-3.86.93-5.71.27-1.03.65-2.02 1.05-3.01.41-.95.89-1.88 1.44-2.77.7.51 1.41.98 2.15 1.42.82.8 1.65 1.57 2.52 2.28zm-3.96 13.62c.12.07.25.13.38.2-.54.73-1 1.51-1.4 2.34-.53 1.07-.9 2.22-1.15 3.39-.22 1.17-.39 2.37-.38 3.56-.01.61.02 1.21.08 1.81-.5-.29-1-.58-1.48-.9-1.08-.72-2.11-1.52-3.06-2.39l-.14-1.26c-.02-.6-.09-1.19-.1-1.79-.04-1.19.05-2.38.21-3.56.2-1.17.45-2.35.9-3.47.31-.76.72-1.51 1.21-2.17 1.41 1.64 3.05 3.1 4.93 4.24zm-6.55-2.26c-.57 1.1-1.04 2.28-1.32 3.5-.29 1.22-.4 2.48-.43 3.73-.03.62.04 1.25.06 1.87-.73-.77-1.39-1.6-1.99-2.48-.04-1.05-.07-2.11.04-3.17.09-1.13.3-2.25.58-3.35.45-1.89 1.18-3.78 2.3-5.39.45.76.93 1.5 1.46 2.21.22.29.46.57.7.85-.53.7-.98 1.45-1.4 2.23zm5.16 14.16-.06-.7c0-.57-.06-1.14-.04-1.71 0-1.14.06-2.27.23-3.4.19-1.12.45-2.23.82-3.31.29-.83.65-1.67 1.13-2.41.93.52 1.88.98 2.84 1.4.6.23 1.19.46 1.79.67-1.01 1.69-1.87 3.48-2.34 5.42-.26 1.1-.46 2.22-.53 3.35-.06.81-.04 1.62.03 2.42a37.36 37.36 0 0 1-3.87-1.73zm17.57-23.67c2.4-.2 4.76-.62 7.09-1.2.19.47.34.96.44 1.46.14.6.21 1.22.25 1.84.05.62.06 1.24.06 1.86 0 .43-.02.85-.04 1.28-.09-.01-.18-.02-.28-.04-1.36-.26-2.72-.49-4.04-.91-.66-.18-1.31-.4-1.97-.61-.55-.22-1.11-.41-1.66-.65-.06-.25-.11-.51-.13-.77-.06-.74-.03-1.54.28-2.26zm.06 14.54c.08-.43.27-.85.41-1.31.25-.91.38-1.84.45-2.77.13-1.7-.04-3.41-.43-5.07 2.22.75 4.55 1.22 6.87 1.36l.77.03c.37.86.71 1.75.99 2.67.38 1.18.61 2.4.71 3.63.12 1.23.1 2.47.03 3.71-.05.97-.13 1.94-.23 2.9-1.18.22-2.35.42-3.54.59-1.82.24-3.66.43-5.52.48-.15-.71-.29-1.44-.39-2.16-.15-.9-.26-1.8-.25-2.71 0-.46.03-.92.13-1.35zm.01 16.93c.08-1.11.23-2.18.43-3.31.28-2.3.24-4.54.2-6.8v-.04c1.82.28 3.68.33 5.51.31 1.25-.04 2.49-.14 3.73-.29.34.71.61 1.52.86 2.29.31 1 .59 2.03.83 3.06.27 1.03.44 2.08.67 3.13l.43 2.3c-1.12.3-2.24.57-3.38.78-3.05.56-6.15.74-9.25.69-.07-.71-.08-1.41-.03-2.12zm12.48-4.97a20.8 20.8 0 0 0-.75-3.19c-.23-.72-.49-1.41-.84-2.11 1.14-.16 2.28-.34 3.4-.57 1.49-.31 2.98-.7 4.44-1.19.27.55.51 1.11.72 1.68.35.97.6 1.96.77 2.98.18 1.01.22 2.05.18 3.09-.02.72-.12 1.43-.25 2.15-.5.24-1.01.49-1.52.72-1.86.8-3.77 1.46-5.71 2 0-.77-.02-1.54-.07-2.31-.05-1.1-.2-2.18-.37-3.25zm13.52-23.99c.46.94.79 2 1.03 3.04.48 2.1.6 4.3.08 6.31v.02c-.02.09-.02.18-.01.27-.25.34-.57.7-.89 1.01-.47.42-.94.84-1.47 1.21-.12.09-.26.16-.38.24l.05-.46c.02-.66.09-1.31.07-1.97-.01-1.32-.19-2.63-.47-3.9-.28-1.28-.66-2.52-1.13-3.74-.3-.75-.63-1.49-1.05-2.2.52-.19 1.03-.4 1.52-.67.47-.27.9-.55 1.32-.9.16.2.31.39.5.58.11.11.25.23.34.32.01.02.03.04.05.06l.09.13c.11.18.24.42.35.65zm-4.3-12c.18.12.37.29.52.46.26.29.5.61.68.98.39.72.65 1.52.81 2.35.12.61.19 1.25.23 1.88l-.03.27c-.03.5-.11 1.01-.14 1.51l-.08 1.05c-.4.32-.89.67-1.36.96-.42.26-.85.51-1.29.74-.01-1.26-.13-2.52-.46-3.76-.2-.72-.48-1.43-.85-2.09-.27-.45-.61-.89-1.04-1.21 1.08-.98 2.07-2.04 3.01-3.14zm-6.92 5.74c.96-.4 1.96-.96 2.78-1.63.33-.26.64-.54.95-.81.33.37.57.83.77 1.29.28.64.43 1.33.56 2.02.12.7.21 1.4.26 2.11l.1 1.9c-.53.26-1.06.51-1.63.74-.67.29-1.37.52-2.1.84.76.2 1.54.28 2.33.24.79-.01 1.57-.16 2.34-.36.01 0 .03-.01.04-.01.52.64.99 1.36 1.37 2.12.56 1.15.87 2.41 1.04 3.67.16 1.27.11 2.55.05 3.81-.04.63-.12 1.26-.18 1.89l-.21 1.26c-.61.35-1.23.67-1.87.97-.77.35-1.55.66-2.35.95-.05-1.61-.23-3.22-.5-4.8l-1-5.57c-.33-1.86-.82-3.72-1.6-5.45-.38-.87-.8-1.72-1.29-2.54-.24-.41-.48-.82-.77-1.2-.14-.19-.28-.38-.44-.57-.07-.08-.13-.15-.19-.23.52-.21 1.03-.42 1.54-.64zm-2.93 1.13c.39-.14.78-.28 1.17-.43.85 1.46 1.49 3.17 2.12 4.78.63 1.75 1.3 3.48 1.89 5.26.61 1.77.92 3.63 1.04 5.5.09 1.7.07 3.39.03 5.08-1.38.46-2.78.85-4.21 1.19-1.13.28-2.27.52-3.41.75.03-.91.04-1.82-.02-2.72-.07-1.26-.24-2.5-.37-3.74l-.54-3.72c-.15-.85-.32-1.7-.58-2.54 2.34 0 4.68-.3 6.88-1.04-2.46.08-4.87-.08-7.24-.4.02-.47.02-.94.01-1.42-.04-.65-.08-1.29-.21-1.93-.12-.64-.28-1.27-.5-1.88-.19-.48-.4-.95-.7-1.37 1.57-.4 3.12-.86 4.64-1.37zm-15.38 2.6c1.06.14 2.12.1 3.17.05.02 0 .04 0 .06-.01-.44.66-.62 1.48-.63 2.27-.01.15.01.3.01.44-2.42-1.01-4.78-2.17-7.13-3.4-.76-.4-1.51-.82-2.26-1.23 1.2.49 2.43.92 3.69 1.26 1.02.26 2.03.52 3.09.62zm-13.52-5.6c-.77.74-1.4 1.62-1.93 2.55-.56.96-1 1.99-1.32 3.06-.32 1.07-.55 2.17-.56 3.28-.05.75-.01 1.5.04 2.24l-.09-.09a37.62 37.62 0 0 1-2.03-2.33c-.02-.45-.02-.91-.03-1.36.03-.51.04-1.02.09-1.53.11-1.01.21-2.02.41-3 .2-.98.47-1.96.86-2.88.37-.85.81-1.7 1.41-2.43.81.62 1.61 1.27 2.39 1.93.26.19.51.37.76.56zm-8.25 2.45c.04-.88.14-1.75.32-2.6.18-.85.47-1.68.88-2.42.37-.68.94-1.33 1.56-1.64.75.53 1.49 1.08 2.22 1.64-.77.6-1.38 1.39-1.87 2.24-.53.93-.89 1.95-1.13 2.99-.27 1.04-.33 2.11-.31 3.17.02.53.08 1.05.11 1.58.03.25.07.5.11.74-.69-.88-1.34-1.79-1.97-2.74.03-.04.06-.08.08-.12.03-.05.04-.1.04-.16v-.01c-.04-.91-.07-1.79-.04-2.67zm-2.02 5.49c.12-.25.25-.49.4-.7.07-.12.15-.2.21-.27l.33-.3c.36-.36.66-.75.93-1.18.41 1.4 1 2.75 1.73 4.03-.49.74-.95 1.5-1.38 2.28-.57 1.02-1.08 2.09-1.48 3.21-.4 1.12-.68 2.28-.82 3.46-.08.47-.11.95-.14 1.43-.41-.81-.75-1.65-.92-2.52-.15-.76-.31-1.53-.42-2.3-.03-1.34.15-2.7.47-4.02.25-1.07.6-2.14 1.09-3.12zm-6.83 15.34v-.01c.14-.63.31-1.27.64-1.82.32-.56.71-1.09 1.21-1.53.48-.44 1.03-.82 1.62-1.14.42-.22.88-.41 1.33-.56.2 1.43.7 2.78 1.35 4.04.01.02.03.04.04.07-.28.34-.53.7-.76 1.08-.38.63-.72 1.29-.99 1.97-.46 1.19-.73 2.43-.81 3.68-.57-.5-1.11-1.02-1.61-1.59-.97-1.15-1.83-2.43-2.29-3.89.13-.05.24-.16.27-.3zm-37.97 49.32c.21-5.05.45-10.11.76-15.16.19-2.68.3-5.41.66-8 .19-1.3.46-2.59.83-3.84.19-.62.4-1.24.66-1.82.24-.56.55-1.17.84-1.58 2.12 1.78 4.02 3.74 5.86 5.75.54.56.91 1.12 1.31 1.65.33.64.71 1.22.97 1.91l.45.99.4 1.03c.28.68.5 1.39.74 2.09.97 2.81 1.76 5.71 2.59 8.6.78 2.76 1.54 5.53 2.39 8.3-6.14.03-12.3.05-18.46.08zm107.61.45-36.33-.35c-12.09-.13-24.11-.11-36.16-.16-5.52-.03-11.03-.02-16.55-.01-.11-2.91-.47-5.79-.98-8.65-.53-3-1.26-5.97-2.22-8.89-.26-.73-.51-1.45-.82-2.17l-.44-1.08-.52-1.06c-.33-.71-.81-1.38-1.22-2.06l-.81-.96c-.28-.32-.56-.54-.85-.81-2.08-1.87-4.33-3.63-6.87-4.85.03-.05.06-.1.07-.16.17-.63.52-1.44.88-2.14.37-.72.78-1.43 1.23-2.12l.34-.52c.11-.17.24-.36.32-.44.18-.22.51-.47.82-.69.65-.45 1.36-.86 2.1-1.24 2.94-1.54 6.05-2.84 9.16-4.11 6.22-2.51 12.54-4.8 18.88-6.99.27 1.52 1.03 2.94 1.94 4.19 1.01 1.37 2.22 2.57 3.52 3.68 2.63 2.17 5.65 3.81 8.77 5.12 6.22 2.64 12.89 4.29 19.72 4.61 3.41.06 6.83-.16 10.18-.83 3.33-.72 6.6-1.78 9.66-3.3 3.06-1.49 5.92-3.38 8.4-5.73 1.22-1.2 2.28-2.52 3.27-3.88.83-1.15 1.57-2.35 2.25-3.59.05.03.08.07.13.08 6.4 2.07 12.78 4.25 19.06 6.64 3.13 1.21 6.27 2.44 9.25 3.92.74.37 1.47.77 2.15 1.21.33.22.67.46.89.71.22.23.47.65.7.97.9 1.37 1.78 2.86 2.23 4.34l.01.02c.01.02.02.03.02.05-2.87 1.11-5.63 2.52-8.16 4.38-.66.49-1.3 1.02-1.9 1.65-.59.61-1.16 1.36-1.52 2.2-.67 1.6-1.03 3.16-1.44 4.73-.69 3.15-1.22 6.31-1.59 9.49-.36 2.97-.6 5.96-.65 8.97l-16.92-.17zm17.05.21c.77-2.9 1.42-5.8 2.04-8.71.68-3.11 1.29-6.23 2-9.3.35-1.52.72-3.08 1.23-4.44.45-1.26 1.55-2.34 2.67-3.39 2.22-1.97 4.71-3.73 7.21-5.5 0 .01.01.02.01.02.71.99 1.23 2.28 1.64 3.53.4 1.27.7 2.57.91 3.89.42 2.64.57 5.35.8 8.04l.55 8.09.25 4.05.12 2.02.06 1.01.03.51c.02.16-.01.36.06.43l-19.58-.25z" fill="#008fa6" stroke-width="none" opacity="1"></path></g><g id="svga-group-head" transform="matrix(1,0,0,1,0,0)"><g id="svga-group-ears-left-move" transform="matrix(1,0,0,1,0,0)"><g id="svga-group-ears-left" transform="matrix(1,0,0,1,0,0)"><path id="SvgjsPath3102" d="M64.2 96.3c-.2-.3-3.1-4-5.5-6.3-2.5-2.3-3.2-2.2-4.4-.8s-2.7 8.5-2.3 11.7 3.3 8.2 4.9 11c1.6 2.8 3.1 6.3 4.8 6 1.8-.3 4.2-4.3 5.3-7.3 1.2-3 .6-10.3-2.8-14.3z" fill="#f3d4cf" stroke-width="none" opacity="1" stroke="none"></path><path id="SvgjsPath3103" d="M67.9 104.8c.1.8.2 1.6.2 2.4s0 1.6-.2 2.4l-.3 1.2c-.1.4-.3.7-.4 1-.3.7-.6 1.3-.9 2-.7 1.2-1.4 2.4-2.4 3.4-.5.5-1 1-1.7 1.2-.3.1-.8.1-1.2 0-.4-.2-.7-.4-1-.7-1.2-1.2-1.8-2.6-2.5-4s-1.4-2.7-2.1-4.1c-.7-1.4-1.4-2.8-2-4.2-.3-.7-.6-1.4-.9-2.2-.3-.7-.5-1.5-.6-2.3-.2-1.6 0-3.2.1-4.7.2-1.5.4-3 .8-4.5.2-.7.4-1.5.7-2.2.1-.2.2-.3.3-.5s.2-.4.3-.5c.2-.3.5-.5.8-.7s.7-.3 1.1-.3c.4.1.7.2 1.1.4.6.4 1.1.9 1.7 1.4 2 2.1 3.7 4.5 5.6 6.8 1.8 2.5 2.9 5.6 3.5 8.7zm-9.6-14.6c-1-.8-2.2-1.7-2.9-1.2-.2.1-.4.3-.6.6-.1.1-.2.2-.2.3-.1.1-.1.3-.2.4-.3.6-.5 1.2-.7 1.9-.4 1.3-.8 2.8-1.1 4.2-.3 1.4-.5 3-.4 4.4.1.7.3 1.5.5 2.2l.9 2.1c.6 1.4 1.4 2.7 2.2 4s1.6 2.6 2.3 3.9c.4.7.7 1.3 1.1 1.9.4.6.8 1.2 1.2 1.6s.8.6 1.2.4.9-.5 1.3-1c.8-.9 1.5-2 2.2-3.2l.9-1.8c.1-.3.3-.6.4-.9l.2-.4c0-.2.1-.3.1-.5.3-1.3.3-2.8.3-4.3-.1-1.5-.3-3-.8-4.5s-1.2-2.9-2.1-4c-1.7-2.2-3.7-4.4-5.8-6.1z" fill="#e4b3ab" stroke-width="none" opacity="1" stroke="none"></path><path id="SvgjsPath3104" d="M54.1 102.4c-.2-2.1-.4-7.4.8-9 2-2.7 5.6 6.1 6.5 8.8 0 .1.1.2.1.2.1.3-.1.7-.4.6-.4-.2-.8-.6-1.2-.8-1.1-.5-1.5.4-1.2 1.7.4 1.7 1.3 2.7 2.1 4 .1.2 0 .4-.2.3-1.5-.9-3.3-4.2-2.9-6.2.3-1.8 1.8-1.7 2.9-.8-.7-1.6-1.4-3.1-2.3-4.5-.6-.9-1.1-1.9-2-2-1.1-.2-.9.3-1.1 1.7-.8 4.6-.3 9.7 2.4 13.7.1.1 0 .2-.1.1-2-2.2-3.1-4.7-3.4-7.8z" fill="#d4958a" stroke-width="none" opacity="1" stroke="none"></path></g></g><g id="svga-group-ears-right-move" transform="matrix(1,0,0,1,0,0)"><g id="svga-group-ears-right" transform="matrix(1,0,0,1,0,0)"><path id="SvgjsPath3105" d="M135.8 96.3c.2-.3 3.1-4 5.5-6.3 2.5-2.3 3.2-2.2 4.4-.8s2.7 8.5 2.3 11.7-3.3 8.2-4.9 11c-1.6 2.8-3.1 6.3-4.8 6-1.8-.3-4.2-4.3-5.3-7.3-1.2-3-.6-10.3 2.8-14.3z" fill="#f3d4cf" stroke-width="none" opacity="1" stroke="none"></path><path id="SvgjsPath3106" d="M135.7 96.3c1.8-2.3 3.5-4.7 5.6-6.8.5-.5 1-1 1.7-1.4.3-.2.7-.4 1.1-.4.4-.1.8.1 1.1.3.3.2.6.5.8.7.1.1.2.3.3.5s.2.3.3.5c.3.7.5 1.4.7 2.2.4 1.5.6 3 .8 4.5.1 1.5.3 3.1.1 4.7-.1.8-.3 1.6-.6 2.3-.3.8-.6 1.5-.9 2.2-.6 1.4-1.3 2.8-2 4.2-.7 1.4-1.4 2.7-2.1 4.1-.7 1.4-1.4 2.8-2.5 4-.3.3-.6.6-1 .7s-.9.2-1.2 0c-.7-.2-1.2-.7-1.7-1.2-1-1-1.7-2.2-2.4-3.4-.3-.6-.6-1.3-.9-2-.1-.3-.3-.7-.4-1l-.3-1.2c-.1-.8-.2-1.6-.2-2.4s.1-1.6.2-2.4c.5-3.3 1.6-6.4 3.5-8.7zm.1.1c-.9 1.1-1.6 2.5-2.1 4s-.7 3-.8 4.5 0 3 .3 4.3c0 .2.1.3.1.5l.2.4c.1.3.3.6.4.9l.9 1.8c.6 1.2 1.4 2.3 2.2 3.2.4.4.9.8 1.3 1 .4.2.8 0 1.2-.4s.8-1 1.2-1.6.8-1.3 1.1-1.9c.7-1.3 1.6-2.6 2.3-3.9.8-1.3 1.5-2.6 2.2-4l.9-2.1c.3-.7.5-1.5.5-2.2.1-1.5-.1-3-.4-4.4-.3-1.4-.6-2.9-1.1-4.2-.2-.7-.5-1.3-.7-1.9-.1-.1-.1-.3-.2-.4-.1-.1-.1-.2-.2-.3l-.6-.6c-.7-.6-1.8.4-2.9 1.2-2 1.6-4 3.8-5.8 6.1z" fill="#e4b3ab" stroke-width="none" opacity="1" stroke="none"></path><path id="SvgjsPath3107" d="M145.9 102.4c.2-2.1.4-7.4-.8-9-2-2.7-5.6 6.1-6.5 8.8 0 .1-.1.2-.1.2-.1.3.1.7.4.6.4-.2.8-.6 1.2-.8 1.1-.5 1.5.4 1.2 1.7-.4 1.7-1.3 2.7-2.1 4-.1.2 0 .4.2.3 1.5-.9 3.3-4.2 2.9-6.2-.3-1.8-1.8-1.7-2.9-.8.7-1.6 1.4-3.1 2.3-4.5.6-.9 1.1-1.9 2-2 1.1-.2.9.3 1.1 1.7.8 4.6.3 9.7-2.4 13.7-.1.1 0 .2.1.1 2-2.2 3.1-4.7 3.4-7.8z" fill="#d4958a" stroke-width="none" opacity="1" stroke="none"></path></g></g><g id="svga-group-faceshape-wrap" transform="matrix(1,0,0,1,0,0)"><g id="svga-group-faceshape-single"><path id="SvgjsPath5323" d="M141 88.4c0 30.3-18.9 65.2-41 65.2s-41-34.9-41-65.2 18.9-47 41-47 41 16.6 41 47z" fill="#f3d4cf" stroke-width="none" opacity="1"></path><path id="SvgjsPath5324" d="M100 41.3c-22.1 0-41.1 16.7-41.1 47s19 65.5 41.1 65.5 41.1-35.2 41.1-65.5-19-47-41.1-47zm28.2 13.6.8.8c.3.3.5.6.8.9.3.3.5.6.8.9l.7.9c.2.3.5.6.7.9l.7 1 .3.5.3.5c.4.7.9 1.3 1.2 2l.6 1c.2.3.4.7.5 1l.5 1.1.5 1.1c.2.4.3.7.5 1.1l.4 1.1c2.3 5.9 3.2 12.4 3.3 18.7 0 6.4-.9 12.8-2.6 18.9-.8 3.1-1.9 6.1-3.1 9-1.2 2.9-2.5 5.8-4 8.6s-3.1 5.5-4.8 8.1c-.9 1.3-1.8 2.6-2.7 3.8-.9 1.2-1.9 2.4-3 3.6-2 2.3-4.3 4.4-6.7 6.3-2.4 1.8-5 3.3-7.8 4.3-1.4.5-2.8.9-4.3 1-1.5.2-2.9.2-4.4.1-3-.2-5.9-1.2-8.6-2.6-2.7-1.4-5.3-3.3-7.6-5.4-2.3-2.1-4.4-4.5-6.3-7.1s-3.6-5.3-5-8.1c-1.5-2.8-2.8-5.7-3.9-8.7-.6-1.5-1.1-3-1.6-4.5s-.9-3-1.3-4.6c-.8-3.1-1.4-6.2-1.8-9.3-.4-3.1-.7-6.3-.8-9.4 0-1.6 0-3.1.1-4.7 0-.8.1-1.6.1-2.3l.2-2.3c.3-3.1.9-6.2 1.7-9.1.8-3 1.8-5.9 3.2-8.6.2-.4.3-.7.5-1l.5-1c.4-.7.8-1.3 1.2-2 .4-.6.8-1.3 1.3-1.9l.7-.9.3-.5.4-.4c1.9-2.4 4.1-4.5 6.5-6.3s5-3.3 7.8-4.5 5.7-2 8.6-2.5c.7-.2 1.5-.2 2.2-.3.4-.1.8-.1 1.1-.1l1.1-.1c.8 0 1.5-.1 2.3-.1H102.6l1.1.1c.4 0 .8.1 1.1.1.4 0 .8.1 1.1.1l1.1.2.6.1.6.1 1.1.2c.4.1.7.2 1.1.3s.7.2 1.1.3c1.4.4 2.9.9 4.3 1.5s2.8 1.2 4.1 2c2.7 1.5 5.2 3.3 7.4 5.4l.4.4.5.3z" fill="#c5796d" stroke-width="none" opacity="1"></path></g></g><g id="svga-group-mouth-single-move" transform="matrix(1,0,0,1,0,0)"><g id="svga-group-mouth-single" transform="matrix(1.0000001,0,0,1.0000001,-0.000010001800163195185,-0.00001316297263542765)"><path id="SvgjsPath4456" d="M87.37 125.93s1.12 4.65 4.76 7.15c3.64 2.5 9.31 2.85 13.38 1.21 4.07-1.64 6.77-5.97 7.12-7.11 0 0-20.18-.45-20.32-.49s-4.94-.76-4.94-.76z" fill="#ff5027" stroke-width="none" opacity="1" transform="translate(0 3)" stroke="none"></path><path id="SvgjsPath4457" d="M86.29 125.34s2.21 2.8 6.33 3.78c2.69.64 5.63-.21 6.96-.36s1.97.36 4.15.64 6.33.14 10.06-2.78c0 0-2.04.5-3.38-.43s-2.88-3.21-7.66-3.92-8.23-.14-11.25 1.36c-3.03 1.5-3.73 1.92-5.21 1.71z" fill="#f74419" stroke-width="none" opacity="1" transform="translate(0 3)" stroke="none"></path><path id="SvgjsPath4458" d="M86.08 125.64c1.36 1.69 3.21 2.75 5.27 3.39 2.54.78 4.71.27 7.28.04 2.94-.27 5.68 1.1 8.66.68 2.34-.33 4.57-1.41 6.54-2.68.56-.37-.01-1.28-.52-.89-2.09 1.6-4.46 2.74-7.15 2.68-2.3-.06-4.4-1.1-6.74-.84-2.02.22-3.9.97-5.96.78-2.8-.26-4.91-1.76-6.77-3.75-.39-.42-.95.17-.61.59z" fill="#f0380d" stroke-width="none" opacity="1" transform="translate(0 3)" stroke="none"></path><path id="SvgjsPath4459" d="M89.91 126.96c2.22 2.07 5.07 1.03 7.71.53 3.67-.69 7.27 1.65 10.87.51.21-.07.19-.42-.05-.4-3.01.24-5.45-1.84-8.45-1.66-3.45.22-6.63 3.22-10.02.94-.05-.03-.1.04-.06.08z" fill="#ff5a34" stroke-width="none" opacity="1" transform="translate(0 3)" stroke="none"></path><path id="SvgjsPath4460" d="M108.59 130.42c-.95.98-1.89 1.9-3.13 2.5-1.38.67-2.74.71-4.23.85-.35.03-.46.54-.09.64 2.84.76 6.56-1.1 7.87-3.67.13-.26-.2-.55-.42-.32z" fill="#ff5a34" stroke-width="none" opacity="1" transform="translate(0 3)" stroke="none"></path><path id="SvgjsPath4461" d="M87.47 125.61c2.67.29 4.92-2.02 7.47-2.57 3.41-.73 6.76-.31 10.12.42.28.06.37-.31.12-.42-2.62-1.11-5.96-1.09-8.73-.75-1.23.15-2.47.4-3.62.87-1.88.77-3.26 2-5.36 2.25-.12.02-.12.19 0 .2z" fill="#ff6541" stroke-width="none" opacity="1" transform="translate(0 3)" stroke="none"></path></g></g><g id="svga-group-eyes-left-move" transform="matrix(1,0,0,1,0,0)"><g id="svga-group-eyes-left" transform="matrix(1,0,0,1,0,0)"><g id="svga-group-eyesback-left"><path id="SvgjsPath3207" d="M90.9 101.3s-.3-2.5-1-3.8-3.7-4.4-7-5c-4.9-1-9.3 1.7-9.3 1.7s0 2.4 1.5 4.1c1.4 1.7 3.9 2.6 4.9 2.7s4.6.3 6.5 0c1.3-.2 2.8-.2 3.4 0 .5.2 1 .3 1 .3z" fill="#ffffff" stroke-width="none" opacity="1"></path></g><g id="svga-group-eyesiriswrapper-left" transform="matrix(1,0,0,1,0,0)"><g id="svga-group-eyesiriscontrol-left" transform="matrix(1,0,0,1,0,0)"><g id="svga-group-eyesiris-left" transform="matrix(1,0,0,1,0,0)"><path id="SvgjsPath5988" d="M82 91.5c2.7 0 4.9 2.2 4.9 4.9s-2.2 4.9-4.9 4.9-4.9-2.2-4.9-4.9 2.2-4.9 4.9-4.9z" fill="#493704" stroke-width="none" opacity="1"></path><path id="SvgjsPath5989" d="M82 93.8c1.4 0 2.6 1.2 2.6 2.6S83.4 99 82 99s-2.6-1.2-2.6-2.6 1.2-2.6 2.6-2.6z" fill="#000000" stroke-width="none" opacity="1"></path><path id="SvgjsPath5990" d="m81.3 94.3-.5-.5c-.2-.2-.4-.3-.7-.3s-.5.1-.7.3c-.2.2-.3.4-.3.7s.1.5.3.7l.5.5c.2.2.4.3.7.3.2 0 .5-.1.7-.3.4-.5.4-1 0-1.4zm2.5 4.4c.8 0 .8-1.3 0-1.3s-.9 1.3 0 1.3z" fill="#ffffff" stroke-width="none" opacity="1"></path></g></g></g><g id="svga-group-eyesfront-left"><path id="SvgjsPath3215" d="M70.73 98.03c0 6.9 4.93 12.5 11.02 12.5s11.02-5.6 11.02-12.5-4.93-12.5-11.02-12.5-11.02 5.59-11.02 12.5zm2.88-3.78s4.42-2.71 9.34-1.75c3.29.64 6.2 3.74 6.95 5.03.75 1.28 1.03 3.82 1.03 3.82s-.53-.14-1.11-.32c-.57-.18-2.05-.19-3.39.04-1.89.32-5.46.18-6.45.04-1-.14-3.49-1.07-4.92-2.75-1.41-1.69-1.45-4.11-1.45-4.11z" fill="#f3d4cf" stroke-width="none" opacity="1" stroke="none"></path><path id="SvgjsPath3216" d="M73.27 94.64c-.1.42-.12.84-.06 1.25-.57-.03-1.21.05-1.59.44-.14.14.01.33.18.3.3-.05.58-.2.88-.27.21-.05.42-.06.63-.05.06.21.13.42.22.63-.18.06-.35.14-.5.21-.38.17-.75.42-.99.76-.11.15.09.28.22.22.35-.16.68-.38 1.03-.55.15-.07.32-.12.49-.18.16.28.35.54.56.8-.41.24-.78.58-.9 1.03-.03.1.09.21.19.15.36-.24.65-.57.96-.88 1.11 1.22 2.67 2.16 3.92 2.57 1.88.62 3.93.72 5.89.62 1.85-.09 4.72-1.14 6.43-.21.07.04.13.02.17-.02l.03-.03c.01-.02.02-.04.02-.06 0-.01.01-.01.01-.03-.1-4.06-2.64-7.49-6.4-8.97-2.08-.82-4.37-1.02-6.58-.69-2.59.39-4.87 1.66-7.54 1.44-.23-.02-.34.3-.18.44.9.88 1.89 1.13 2.91 1.08zm.67-.07c1.99-.32 4.11-1.54 6.09-1.68 5.13-.36 10.05 3 10.7 8.24-2.39-.82-5.13-.1-7.59-.15-2.01-.04-4.14-.32-5.91-1.34-2.21-1.28-2.61-2.93-3.29-5.07z" fill="#000000" stroke-width="none" opacity="1" stroke="none"></path></g></g></g><g id="svga-group-eyes-right-move" transform="matrix(1,0,0,1,0,0)"><g id="svga-group-eyes-right" transform="matrix(1,0,0,1,0,0)"><g id="svga-group-eyesback-right"><path id="SvgjsPath3208" d="M109.1 101.3s.3-2.5 1-3.8 3.7-4.4 7-5c4.9-1 9.3 1.7 9.3 1.7s0 2.4-1.5 4.1c-1.4 1.7-3.9 2.6-4.9 2.7s-4.6.3-6.5 0c-1.3-.2-2.8-.2-3.4 0-.5.2-1 .3-1 .3z" fill="#ffffff" stroke-width="none" opacity="1"></path></g><g id="svga-group-eyesiriswrapper-right" transform="matrix(1,0,0,1,0,0)"><g id="svga-group-eyesiriscontrol-right" transform="matrix(1,0,0,1,0,0)"><g id="svga-group-eyesiris-right" transform="matrix(1,0,0,1,0,0)"><path id="SvgjsPath5991" d="M118 91.5c2.7 0 4.9 2.2 4.9 4.9s-2.2 4.9-4.9 4.9-4.9-2.2-4.9-4.9 2.2-4.9 4.9-4.9z" fill="#493704" stroke-width="none" opacity="1"></path><path id="SvgjsPath5992" d="M118 93.8c1.4 0 2.6 1.2 2.6 2.6S119.4 99 118 99s-2.6-1.2-2.6-2.6 1.2-2.6 2.6-2.6z" fill="#000000" stroke-width="none" opacity="1"></path><path id="SvgjsPath5993" d="m117.4 94.3-.5-.5c-.2-.2-.4-.3-.7-.3s-.5.1-.7.3c-.2.2-.3.4-.3.7s.1.5.3.7l.5.5c.2.2.4.3.7.3.2 0 .5-.1.7-.3.3-.5.4-1 0-1.4zm2.4 4.4c.8 0 .8-1.3 0-1.3s-.8 1.3 0 1.3z" fill="#ffffff" stroke-width="none" opacity="1"></path></g></g></g><g id="svga-group-eyesfront-right"><path id="SvgjsPath3217" d="M118.26 85.53c-6.08 0-11.02 5.6-11.02 12.5s4.93 12.5 11.02 12.5 11.02-5.6 11.02-12.5-4.94-12.5-11.02-12.5zm6.67 12.82c-1.43 1.68-3.92 2.6-4.92 2.75-1 .14-4.56.29-6.45-.04-1.34-.23-2.82-.21-3.39-.04-.57.18-1.11.32-1.11.32s.29-2.53 1.03-3.82c.75-1.28 3.66-4.38 6.95-5.03 4.92-.96 9.34 1.75 9.34 1.75s-.03 2.43-1.45 4.11z" fill="#f3d4cf" stroke-width="none" opacity="1" stroke="none"></path><path id="SvgjsPath3220" d="M129.64 93.58c.15-.15.04-.46-.18-.44-2.68.22-4.96-1.05-7.54-1.44-2.21-.33-4.49-.13-6.58.69-3.76 1.48-6.31 4.91-6.4 8.97 0 .01.01.02.01.03 0 .02.01.04.02.06l.03.03c.04.04.1.06.17.02 1.71-.93 4.58.11 6.43.21 1.96.1 4.02-.01 5.89-.62 1.25-.41 2.81-1.35 3.92-2.57.31.31.6.64.96.88.1.06.22-.04.19-.15-.12-.45-.5-.79-.9-1.03.21-.26.4-.52.56-.8.17.06.34.11.49.18.35.17.68.39 1.03.55.13.06.33-.07.22-.22-.25-.34-.61-.59-.99-.76-.15-.07-.32-.15-.5-.21.09-.21.17-.42.22-.63.21 0 .42.01.63.05.3.07.58.21.88.27.17.03.31-.16.18-.3-.38-.39-1.02-.48-1.59-.44.06-.41.04-.83-.06-1.25 1.02.03 2.01-.22 2.91-1.08zm-6.87 6.06c-1.77 1.03-3.9 1.3-5.91 1.34-2.46.05-5.21-.67-7.59.15.65-5.24 5.56-8.6 10.7-8.24 1.98.14 4.1 1.36 6.09 1.68-.68 2.14-1.08 3.79-3.29 5.07z" fill="#000000" stroke-width="none" opacity="1" stroke="none"></path></g></g></g><g id="svga-group-facehighlight-single"></g><g id="svga-group-eyebrows-left-move" transform="matrix(1,0,0,1,0,0)"><g id="svga-group-eyebrows-left-rotate" transform="matrix(1,0,0,1,0,0)"><g id="svga-group-eyebrows-left" transform="matrix(1,0,0,1,0,0)"><path id="SvgjsPath6235" d="M72.9 84.2c.1-.2.4-.3.6-.4.2-.1.4-.2.6-.2.4-.2.8-.4 1.2-.5.5-.1 1.2-.5 1.7-.2 1.6-.6 3.7-.2 5.1.6 1.9.2 3.9.8 5.3 1.8.1.1.2.2.2.3.3.1.5.2.8.3 1 .4 2.1.7 3.1 1.2.1 0 .2.1.3.1.3.1.4.7.2.8-.1.1-.1.2-.2.3-.8.6-1.8.2-2.6-.1-.7-.3-1.5-.6-2-1.2-.8-.3-1.4-.7-2.1-1.1-.1 0-.2-.1-.3-.1-1.2-.2-2.5-.7-3.7-1.3-.7-.1-1.3-.3-2-.3-.9-.1-1.8.2-2.8-.1h-.1c-.2.1-.4.1-.6.2-.8.2-1.5.4-2.3.4-.1 0-.2-.1-.2-.2H73s-.2-.1-.1-.3z" fill="#493b02" stroke-width="none" opacity="1" stroke="none"></path><path id="SvgjsPath6236" d="M77.4 82.3c3.1-.2 6.2 1.5 9 2.6 1.7.7 5.2.9 5.9 3 .1.3-.3.4-.5.2-.9-1.2-2.4-1.4-3.8-1.8-1.2-.4-2.3-.8-3.5-1.3-2.4-1-4.8-1.6-7.3-2.2-.1-.1 0-.4.2-.5z" fill="#58490b" stroke-width="none" opacity="1" stroke="none"></path><path id="SvgjsPath6237" d="M93.3 87.9c.3-1.4-1.8-1.9-2.8-2.3-2.4-1-4.9-2.1-7.4-2.8-1.5-.4-3.1-.7-4.6-.7-1.2 0-2.3.1-3.5.5-2 .6-3.9 1.8-5.6 3.1-.9.5-1.8 1.2-2.5 1.9-.1.1 0 .3.2.2 0 0 .1 0 .1-.1 0 .1.1.1.2.1 1.5-.7 2.8-1.6 4.3-2.2 1.5-.6 3.1-1 4.7-1.1h.7c1.9 0 3.7.4 5.4 1.2 2.4 1.1 4.6 2.6 7 3.5.4.2.9.2 1.4.2 1.1 0 2.2-.4 2.4-1.5zM78.5 83c1.6 0 3.2.4 4.8.9 2 .7 4 1.6 6 2.4.4.2 2.4.7 2.6 1.2.2.6-.2.8-.8.9-.3 0-.6-.1-.8-.1-.6-.2-1.2-.6-1.7-.9-3.1-1.6-6.3-3.5-9.8-3.7h-1c-1.1 0-2.3.1-3.5.3.5-.2 1-.4 1.6-.6.8-.3 1.7-.4 2.6-.4z" fill="#3a2e00" stroke-width="none" opacity="1" stroke="none"></path></g></g></g><g id="svga-group-eyebrows-right-move" transform="matrix(1,0,0,1,0,0)"><g id="svga-group-eyebrows-right-rotate" transform="matrix(1,0,0,1,0,0)"><g id="svga-group-eyebrows-right" transform="matrix(1,0,0,1,0,0)"><path id="SvgjsPath6238" d="M127.1 84.2c-.1-.2-.4-.3-.6-.4-.2-.1-.4-.2-.6-.2-.4-.2-.8-.4-1.2-.5-.5-.1-1.2-.5-1.7-.2-1.6-.6-3.7-.2-5.1.6-1.9.2-3.9.8-5.3 1.8-.1.1-.2.2-.2.3-.3.1-.5.2-.8.3-1 .4-2.1.7-3.1 1.2-.1 0-.2.1-.3.1-.3.1-.4.7-.2.8.1.1.1.2.2.3.8.6 1.8.2 2.6-.1.7-.3 1.5-.6 2-1.2.8-.3 1.4-.7 2.1-1.1.1 0 .2-.1.3-.1 1.2-.2 2.5-.7 3.7-1.3.7-.1 1.3-.3 2-.3.9-.1 1.8.2 2.8-.1h.1c.2.1.4.1.6.2.8.2 1.5.4 2.3.4.1 0 .2-.1.2-.2h.1s.2-.1.1-.3z" fill="#493b02" stroke-width="none" opacity="1" stroke="none"></path><path id="SvgjsPath6239" d="M122.6 82.3c-3.1-.2-6.2 1.5-9 2.6-1.7.7-5.2.9-5.9 3-.1.3.3.4.5.2.9-1.2 2.4-1.4 3.8-1.8 1.2-.4 2.3-.8 3.5-1.3 2.4-1 4.8-1.6 7.3-2.2.1-.1 0-.4-.2-.5z" fill="#58490b" stroke-width="none" opacity="1" stroke="none"></path><path id="SvgjsPath6240" d="M109 89.3c.5 0 1-.1 1.4-.2 2.4-.9 4.7-2.4 7-3.5 1.8-.8 3.6-1.2 5.4-1.2h.7c1.6.1 3.2.5 4.6 1.1 1.5.6 2.9 1.6 4.3 2.2.1 0 .2 0 .2-.1 0 0 .1 0 .1.1.2.1.3-.1.2-.2-.7-.7-1.6-1.4-2.5-1.9-1.7-1.3-3.6-2.4-5.6-3.1-1.1-.4-2.3-.5-3.5-.5-1.6 0-3.1.3-4.6.7-2.5.7-5 1.8-7.4 2.8-.9.4-3.1.9-2.8 2.3.4 1.2 1.5 1.6 2.5 1.5zm15.2-5.9c.5.2 1.1.3 1.6.6-1.2-.2-2.3-.3-3.5-.3h-1c-3.5.2-6.8 2.2-9.8 3.7-.6.3-1.1.7-1.7.9-.2.1-.5.1-.8.1-.5 0-1-.2-.8-.9.2-.5 2.2-1 2.6-1.2 2-.8 4-1.7 6-2.4 1.6-.5 3.2-.9 4.8-.9.8 0 1.7.1 2.6.4z" fill="#3a2e00" stroke-width="none" opacity="1" stroke="none"></path></g></g></g><g id="svga-group-nose-single-move" transform="matrix(1,0,0,1,0,0)"><g id="svga-group-nose-single" transform="matrix(1,0,0,1,0,0)"><path id="SvgjsPath5030" d="M104.93 107.57c-.14-.18-.45.05-.32.25.84 1.29 1.76 2.56 2.54 3.89.53.9 1.07 2.03.7 3.12-.61 1.79-2.18 1.68-3.45 1 .48-.61.75-1.33.69-2.12-.02-.19-.29-.37-.44-.18-1.26 1.59-2.06 3.25-4.41 3.34-2.48.1-4.08-1.91-4.73-4.07-.06-.19-.32-.14-.33.04-.07.99.25 1.95.79 2.76-.36.07-.73.14-1.09.16-1.15.07-1.34-.02-2.11-.98-.8-1.01-.81-1.27-.36-2.39.21-.53.52-.98.82-1.45.97-1.52 1.84-3.06 2.48-4.75 1.29-3.37 1.85-7.09 1.22-10.66-.03-.15-.26-.11-.27.04-.01 2.89-.19 5.74-1.04 8.52-.88 2.88-2.54 5.04-3.92 7.64-.72 1.35-1.02 3.12.21 4.28 1.22 1.15 3.1.78 4.52.24.85.92 2.02 1.56 3.26 1.67 1.4.12 3.23-.55 4.36-1.7 1.31 1.45 3.82.78 4.47-1.08 1.01-2.82-2.06-5.64-3.59-7.57z" fill="#c5796d" stroke-width="none" opacity="1" transform="translate(0 2)" stroke="none"></path><path id="SvgjsPath5031" d="M102 110.13c-.8-.75-2.07-.97-2.97-.27-.33.25-.52.57-.61.9-.16.05-.3.14-.44.27-.68.67-.39 1.71.19 2.34.5.53 1.31.78 2.02.75.88-.05 1.67-.46 2.16-1.2.57-.86.4-2.09-.35-2.79z" fill="#fbe5e2" stroke-width="none" opacity="1" transform="translate(0 2)" stroke="none"></path></g></g><g id="svga-group-hair-front" transform="matrix(1,0,0,1,0,0)"><path id="SvgjsPath3927" d="M137.8 95.9s3.1-2.7 4.3-7 0-9.9 0-9.9 1.7-5.1-2.2-13.5c0 0 0-6.5-4.3-11.8 0 0 .5-9.1-11.1-14.9 0 0-2.7-3.4-8.7-3.6 0 0-4.1-3.4-10.3-3.4 0 0-4.3-1.7-8.7 0 0 0-3.4-1-5.8 1 0 0-2.9.5-6 3.4 0 0-3.1-.5-5.5 1.2 0 0-2.4.2-6.7 5S67.5 52 67.5 52s-4.6 1-4.8 9.1c0 0-2.9 2.7-2.9 8.4 0 0-2.4 1.9-1.7 7.9 0 0-1.4 6.5.5 11.8 1.9 5.3 3.1 3.1 3.1 3.1s1.9-2.2 1.9-5.8c0 0 2.9-4.3 2.4-8.4 0 0 2.5-1.9 2.5-4.5 0 0 3.6-2.9 3-5.3 0 0 3.7-.2 5.6-5 0 0 3.2.3 8-3 0 0 14.5 9.2 33 .4 0 0 3.2 3 7.3 2.8 0 0 2.6 7 6.3 7 0 0 2.2 4.6 4.3 4.6 0 0-.5 6.3 1.4 9.9.2.1-.5 8.2.4 10.9zm-37.1-74.1s14.3.7 18.7 12.7c0 0-4-6.6-18.7-12.7zm-42.2 11s-18.8 23.4-2.4 50.4c0 0-5.1-14.7-3.1-28.7 2-14 5.5-21.7 5.5-21.7zm-15.1 34S45.9 79 52 88.6c0 0-9.5-8.6-8.6-21.8z" fill="#8e7e0c" stroke-width="none" opacity="1" stroke="none"></path><path id="SvgjsPath3928" d="M69.5 142s11.4 14.3 6.2 32.9c-2.8 10.3-2.3 14.1-.8 19 1.6 4.8-8.9 5.6-11.8 8.4-2.9 2.8-4 5-3.6 7.5 0 0-3.3-5 .3-10.7s-10.5-16.6-14.3-21.4c-2.8-3.5-2.6-12.9-1-19.4.1-7.9 2.6-14.9 4.9-15.7.4 0 8.8 3.6 20.1-.6zm-8.1-56.6c0 .5.2 1 .5 1.4.1.1.2 0 .1-.1-.3-.4-.5-.8-.5-1.2 0-.1-.1-.1-.1-.1zm15.2-42.6c.1-.3-.3-.5-.5-.2-3.4 5.2-5.8 16.9 1.1 20.5.3.2.7-.3.4-.5-5.4-5.1-3.4-13.6-1-19.8zM63.7 85.9c-.9-1.9-1.9-3.8-2.4-5.9-.5-1.9-.5-3.8-.8-5.6-.1-.3-.5-.2-.5 0-.9 3.9.8 8.9 3.3 11.9.2.2.5-.1.4-.4zm4.6-12.8c.4.1.8-.3.5-.6-3.8-3.2-3.7-7-4.7-11.5-.1-.5-.7-.3-.8.1-.4 4.2.7 10.1 5 12zm3.6-5c.3.1.7-.2.4-.5-4.4-4.1-3.3-9.8-3.2-15.3 0-.4-.6-.4-.7-.1-1.7 4.6-1.8 13.5 3.5 15.9zm-6.2 9.3c-1.6-2.6-2.2-5.2-2.8-8.1-.1-.3-.5-.2-.6.1-.2 3 1.1 6 2.9 8.4.2.2.7-.1.5-.4zM83 39.8c.1-.2-.2-.4-.4-.2-3.1 4.9-3.8 15.8 1.1 19.9.3.2.7 0 .5-.4-2.5-5.7-3.9-13.4-1.2-19.3zm23-5.3c5.3 9.3 6.6 18.3-1.4 26.3-.3.3.1.7.4.5 11.1-4.7 6.3-19.8 1.2-27-.1-.1-.3 0-.2.2zm30.4 22.4c-.1-.5-.7-.3-.8.1-.3 2.3-.3 4.6-1 6.9-.7 2.2-2 4.2-3.2 6.2-.2.3.2.6.5.4 3.5-3 5.8-9.1 4.5-13.6zm-12.2-13.2c.8 3.1 2 6 2.1 9.3.2 3.2-.4 6.4-1.2 9.5-.1.3.4.6.6.2 2.7-5.8 2.8-14-1-19.3-.2-.2-.6-.1-.5.3zm15.4 23.5c0-.2-.4-.4-.5-.1-.5 2.8-1.1 5.3-2.5 7.8-.1.2.2.5.4.3 1.8-2.2 2.9-5.1 2.6-8zm1.4 11.6c-1.2 1.7-2.1 3.8-3 5.7-.1.3.2.5.4.3 1.3-1.7 2.5-3.8 2.8-5.9.2-.2-.1-.3-.2-.1zm-46.7-39c0-.2-.3-.2-.3 0-.1 7.3 2.1 14.4 5.8 20.6.1.2.4 0 .3-.2-3.5-6.5-5.1-13.1-5.8-20.4zm21.5-2.7c2.1 3.7 3.6 7.4 3.9 11.7.3 3.4-.6 6.6-.9 9.9 0 .3.5.4.6.2 3.8-6.6 1.4-16.4-3.2-22-.2-.3-.5-.1-.4.2zm-25.5-3.3c.1-.3-.4-.5-.5-.2-3.9 7.3-4.1 21.2 3 26.8.3.3.8-.2.5-.5-6.1-6.6-5.9-18.2-3-26.1zm6.9-.7c.5 2 1.4 3.9 2 5.9.6 2 1 4 1.6 6 .1.3.6.3.6-.1-.3-3.9-1.6-8.7-3.9-11.9 0-.2-.3-.2-.3.1z" fill="#7f6f00" stroke-width="none" opacity="1" stroke="none"></path><path id="SvgjsPath3929" d="M53.7 120.5s-.5 13-6.8 24.6-5 24.1 2.7 33.7 14.3 14.8 11.8 20c-2.5 5.2-2.3 8.2-2.3 8.2s.7-4.8 4.8-8.9 2.3-8.6-6.2-15.7c-8.4-7.1-13.2-13.7-11.8-22.5 1.4-8.9 7.5-15.7 8.9-21.2 1.4-5.5-1.1-18.2-1.1-18.2zm7.5 16.6s-.5 14.8-4.1 22.8 1.4 15 6.2 19.4c4.8 4.3 6.6 7.7 7.3 10.7.7 3-2.5 5.2-3.6 6.8 0 0 5.5-1.4 5-7.3s-7.5-9.8-10-19.6c-2.6-9.8 2-12.1-.8-32.8zm7.1 7.5s-.5 9.8 2.1 16.2c2.5 6.4 4 13.2 2.4 20.2 0 0 2.2-4 2.6-14.3.5-10.2-3.5-7.5-7.1-22.1z" fill="#8e7e0c" stroke-width="none" opacity="1" stroke="none"></path><path id="SvgjsPath3930" d="M111.3 36.1c-.2-.2-.6.2-.4.4 2.6 3.6 5 6.6 5.6 11.2.8 5.6-1 11.2-6 14.2-.2.1 0 .3.2.3 9.7-4.5 9.2-20.7.6-26.1zm.8 3.1c-.1-.3-.6-.2-.5.1 2.1 8.4 3.6 18.2-5.5 23.1-.2.1-.1.5.2.5 9.3-4 9-15.7 5.8-23.7zm8.2.8c-.2-.3-.7 0-.5.3 3.4 7 5.8 13.5 2.3 21.1-.2.3.3.6.5.3 4.4-6.8 2.2-15.6-2.3-21.7zm10.1 5.1c-.1-.3-.6-.2-.5.1.4 1.4.8 2.7 1.1 4.1-.9-2.7-2.2-5.2-3.9-7.2-.1-.2-.4 0-.3.2 4.1 7 4.8 13.5 3.4 21.4-.1.4.5.6.6.2.9-2.4 1.4-5 1.3-7.6.1.3.6.2.6-.2.2-3.8-.9-7.6-2.3-11zm-26.2-9.5c-.1-.3-.6-.2-.5.1 1.8 5.6 2.5 11.2 2.4 17 0 .3.4.3.5 0 .8-5.8-.1-11.6-2.4-17.1zm-1 13.5c0-.3-.4-.3-.4 0 0 2.4-.2 4.8-.2 7.1 0 .3.4.3.5.1.4-2.4.4-4.8.1-7.2zM99 60.9c-4.8-7.7-7.1-14.6-6-23.7 0-.2-.2-.2-.3 0-2.1 8-.1 18.1 6 24 .1.1.4-.1.3-.3zm-2.5.6c-3.1-4.2-5.4-8.5-6.1-13.7 0-.3-.5-.2-.5.1.5 5.2 2.4 10.3 6.2 13.9.2.2.6-.1.4-.3zm-9.3-3.7c-3.7-5.5-5-11.4-3.8-18 .1-.3-.3-.4-.4-.1-2 6.3-.7 13.4 3.8 18.4.2.3.6 0 .4-.3zm-8.1 3c-4.9-6.1-3.7-13.1-.6-19.7.1-.2-.2-.5-.4-.2-3.6 6.2-5.4 14.9.7 20.2.2.2.5-.1.3-.3zm58.4 1c0-.3-.6-.4-.6 0 .1 3.2-.6 6.1-1.1 9.2-.1.4.5.7.6.3 1.3-2.9 1.4-6.4 1.1-9.5zm2.3 9.8c0 1.9-.5 3.5-1.1 5.3-.1.3.3.4.4.2 1-1.6 1.3-3.6 1.3-5.5 0-.4-.6-.4-.6 0zM71 49.2c.1-.2-.3-.4-.4-.2-2.2 4.7-1.2 10.1 1 14.6.1.2.5.1.4-.2-1.6-4.8-2.3-9.2-1-14.2zm-5.4 6.3c0-.2-.3-.3-.4 0-.8 4.1 0 8 1.3 11.9.1.2.3.1.3-.1-.8-4-1.7-7.8-1.2-11.8zm-2.9 8.7c0-.3-.5-.3-.5 0-.3 2-.1 4 .7 5.8.1.2.5.1.4-.2-.4-1.8-.7-3.6-.6-5.6zM61 70c0-.3-.4-.3-.5 0-.4 2.8-.1 5.9 1 8.5.1.3.6.1.5-.2-.5-2.8-1-5.5-1-8.3zm34.2-44.6c-12.3-6-27.2 3.4-29.5 16.2-.1.4.4.5.6.2C68.1 36.1 71.4 31 76.6 28c6-3.4 11.8-3.2 18.4-2.1.3.1.6-.4.2-.5zm17.1 5.4c-1.9-2.9-4.9-5.1-8.1-6.6-.3-.1-.5.2-.2.4 3 1.8 5.5 4 8 6.4.2.2.5 0 .3-.2zm-61.6 10c-6.7 9.9-6.1 26-.9 36.3.1.2.4.1.3-.1-4.4-10.7-5.3-25.7.9-36 .1-.2-.2-.4-.3-.2zm15-14.1C55.5 36.8 54.5 52.7 55 66.2c0 .4.5.4.6 0 .9-14.1 1-27.7 10.4-39.2.2-.2-.1-.5-.3-.3zm-6.6 151.2c-2.1-2-4.2-3.7-5.5-6.3-1.7-3.5-1.4-7.5-.5-11.1 1.3-5.5 4.1-10.5 5.3-16 1.1-4.9 1.1-10 0-14.8-.1-.4-.7-.3-.7.1.5 6.4.1 12.5-2.1 18.6-1.7 4.7-4.1 9.2-4.7 14.3-.4 3.8.2 7.8 2.4 10.9 3.2 4.6 10 6.6 10 13.1 0 .1.1.1.1 0 0-3.7-1.8-6.4-4.3-8.8zm11.1-.5c-3.5-7.5-3.8-14-3.4-22.2.2-5.1 0-9.9-2.7-14.3-.1-.2-.5-.1-.4.2 5 12-2.5 25.6 6.1 36.7.2.3.5-.1.4-.4z" fill="#9d8e1d" stroke-width="none" opacity="1" stroke="none"></path></g><g id="svga-group-glasses-single-move" transform="matrix(1,0,0,1,0,0)"><g id="svga-group-glasses-single" transform="matrix(1,0,0,1,0,0)"></g></g></g></g></g><rect id="svga-credit-rect" width="200" height="15" x="0" y="185" fill="#ecf0f1" opacity="0.5" style="display: none;"></rect><text id="svga-credit-text" font-family="Avenir Next, Roboto, Helvetica, Arial, sans-serif" font-size="10px" text-anchor="start" font-weight="400" size="10px" anchor="start" weight="400" fill="#333333" x="33.40447998046875" y="182.60824704170227" style="display: none;"><tspan id="SvgjsTspan2896" dy="13" x="33.40447998046875">Created on AvatarMaker.com</tspan></text></g></svg>