<svg xmlns="http://www.w3.org/2000/svg" version="1.1" width="600px" height="600px" viewBox="0 0 200 200" style="overflow:hidden!important;"><g id="svga-group-wrapper"><g id="svga-group-backs-single"><path id="SvgjsPath6307" d="M0 0h200v200H0V0z" fill="#ecf0f1" stroke-width="none" opacity="1"></path></g><g id="svga-group-humanwrap-move" transform="matrix(1,0,0,1,0,0)"><g id="svga-group-humanwrap"><g id="svga-group-hair-back-move" transform="matrix(1,0,0,1,0,0)"><g id="svga-group-hair-back"></g></g><g id="svga-group-humanbody-back"><path id="SvgjsPath6260" d="M180.8 184.9c-2.3-3.4-38.9-17.8-38.9-17.8l-13.4-5.2-5.6-68.8H76.8L71.3 162l-13.4 5.2S21.4 181.6 19 185c-2.3 3.4-3.3 14.9-3.3 14.9V219h168.5v-19.2c-.1.1-1-11.5-3.4-14.9z" fill="#f0c7b1" stroke-width="none" opacity="1"></path></g><g id="svga-group-chinshadow-single"><path id="SvgjsPath6256" d="M73.4 148.4c11.3 14.1 20.9 13.8 20.9 13.8s9.6.3 20.9-13.9c4.4-5.5 8-11.5 10.8-17.1l-3.1-38.1H76.8l-4.3 54.2c.3.3.6.7.9 1.1z" fill="#d19271" stroke-width="none" opacity="1"></path></g><g id="svga-group-humanbody-front"><path id="SvgjsPath6261" d="M184.5 219c-.1-6.4-.1-12.8-.1-19.2l-.3-.1s.1-.1.2 0c.1 0 .1.1.1.1v-.4l-.1-.5-.1-.9-.2-1.9c-.2-1.3-.4-2.5-.6-3.8-.2-1.3-.5-2.5-.9-3.8-.4-1.2-.8-2.5-1.5-3.6-.8-.9-1.9-1.5-2.9-2.1-1-.6-2.1-1.1-3.2-1.7-2.1-1.1-4.3-2.1-6.5-3.1-4.4-2-8.7-3.9-13.1-5.7-4.4-1.9-8.8-3.7-13.2-5.5l-13-5.2-1.2-16.9c-.4-5.7-.9-11.5-1.3-17.2l-1.3-17.2-1.5-17.3-.1-.8h-.8c-7.7 0-15.4.1-23.1.1l-23.1.2h-.5v.5L75 110.2l-1.3 17.2c-.8 11.4-1.8 22.8-2.8 34.2-5.6 2.1-11.2 4.2-16.7 6.4-5.6 2.2-11.2 4.5-16.8 6.9-2.8 1.2-5.6 2.4-8.3 3.6-2.8 1.3-5.5 2.5-8.2 4.1-.7.4-1.3.8-2 1.4-.2.1-.4.4-.5.6l-.3.6c-.2.4-.4.7-.5 1.1-.6 1.5-1 3-1.3 4.5-.6 3-1.1 6-1.4 9.1l-.1 19.1v.9h.9l42.1.1H100c14 0 28.1-.1 42.1-.2l42.1-.5h.3v-.3zm-84.5-1-42.1-.1-41.2.1-.1-18.1c.3-3 .6-5.9 1.2-8.9.3-1.4.6-2.9 1.1-4.2.1-.3.3-.7.4-.9l.2-.4.3-.3c.5-.4 1.1-.8 1.8-1.2 2.5-1.5 5.3-2.8 8-4.1 2.7-1.3 5.5-2.5 8.2-3.7 5.5-2.4 11.1-4.8 16.7-7.1s11.2-4.5 16.9-6.7l.2-.1v-.2c.9-11.5 1.7-23 2.7-34.4l1.4-17.2 1.5-16.7 22.6.2c7.4.1 14.8.1 22.3.1l1.3 16.4 1.5 17.2c.5 5.7 1 11.5 1.5 17.2l1.6 17.2v.3l.3.1 13.4 5c4.4 1.7 8.9 3.4 13.3 5.2 4.4 1.8 8.8 3.7 13.2 5.6 2.2 1 4.3 2 6.5 3 1.1.5 2.1 1.1 3.2 1.6 1 .6 2.1 1.2 2.9 2 .7 1.1 1.1 2.3 1.4 3.5.3 1.2.6 2.5.8 3.7.2 1.3.4 2.5.6 3.8l.2 1.9.1.9.1.5v.4c0 6.3 0 12.6-.1 18.9l-41.8-.5c-14 .1-28.1 0-42.1 0z" fill="#c27b55" stroke-width="none" opacity="1"></path><path id="SvgjsPath6262" d="M125.1 142.4s-1.8 23-9.1 32.9c0 0 7.9-25 9.1-32.9zm-34.5 16s5 7.9 11.5 10.1c0 0-9.5 2.2-11.5-10.1zM73.4 140c6.7 25.6 6.7 25.6 8.5 30.7 0 0 .4-12.6-8.5-30.7z" fill="#d19271" stroke-width="none" opacity="1"></path></g><g id="svga-group-clothes-single"><path id="SvgjsPath6146" d="M56.9 166.6s-31.1 11.5-38.3 16.7c0 0-2.3 2.3-3.3 9.3-1 7-1.4 27.3-1.4 27.3h171.5s-.2-16.2-1.3-25.3c-1.2-9.1-1.9-9.3-3.1-10.5-1.2-1.2-27.3-14-38.6-17.5 0 0-1.6 22-40.1 23.6s-45.2-17.5-45.4-23.6z" fill="#386e77" stroke-width="none" opacity="1"></path><path id="SvgjsPath6147" d="M185.8 220c-.1-6.6-.3-13.2-.7-19.8-.2-3.3-.6-6.6-1.1-9.8-.3-1.6-.5-3.3-1.3-4.9-.2-.4-.5-.8-.8-1.1-.3-.3-.6-.6-1-.9-.8-.5-1.5-.9-2.2-1.2-5.8-3.1-11.8-5.9-17.8-8.7-3-1.4-6-2.7-9.1-3.9-3.1-1.3-6.1-2.5-9.3-3.5l-.5-.2-.1.6c-.3 2.1-1 4.2-2.1 6.1l-.4.7-.4.7-.9 1.4-1 1.3c-.4.4-.7.9-1.1 1.2-1.5 1.6-3.2 2.9-5 4.1-.9.6-1.8 1.2-2.8 1.7l-3 1.4c-4.1 1.6-8.3 2.9-12.7 3.6l-3.3.5-3.3.3-3.3.3c-1.1.1-2.2 0-3.3.1H96c-1.1 0-2.2-.1-3.3-.1l-3.3-.2-3.3-.4c-2.2-.2-4.3-.8-6.5-1.2-1.1-.2-2.1-.6-3.2-1l-1.6-.5-1.5-.7c-4.1-1.7-7.9-4.1-10.8-7.4l-1.1-1.2c-.3-.4-.6-.9-1-1.3-.7-.9-1.1-1.9-1.7-2.8-1-2-1.6-4.1-1.8-6.4-3.4 1.2-6.6 2.4-9.9 3.6-3.3 1.2-6.5 2.5-9.8 3.8-3.2 1.3-6.5 2.7-9.6 4.1-3.2 1.5-6.4 2.9-9.3 4.9-1.1 1.3-1.7 2.8-2.2 4.2-.5 1.5-.9 3-1.1 4.6-.5 3.1-.6 6.2-.8 9.3-.4 6.2-.6 12.4-.7 18.7v.4h.4c14.3.1 28.6-.1 42.9-.1l42.9-.1h21.4l21.4.1 42.9.2h.4v-.5zm-64.7-.2H99.7l-42.9-.1c-6.8 0-13.6 0-20.5-.1-.1-3.4-.5-6.7-1-10-.6-3.4-1.3-6.8-2.5-10-.6-1.6-1.5-3.2-2.5-4.6-1-1.4-2-2.8-3.2-4.1-2.3-2.6-4.9-4.9-7.6-6.9 2.5 2.3 4.9 4.8 7.1 7.4 2.1 2.6 4.1 5.4 5.3 8.6 1.2 3.1 2 6.5 2.7 9.8.4 1.7.7 3.4 1 5 .3 1.6.6 3.2.8 4.9-7.3 0-14.6-.1-22 0 .1-6.1.3-12.1.6-18.2.2-3.1.3-6.2.8-9.3.2-1.5.6-3 1.1-4.5.5-1.4 1.1-2.9 2-4 2.8-1.9 6-3.4 9.1-4.9 3.2-1.5 6.4-2.8 9.6-4.2 3.2-1.4 6.4-2.7 9.7-4l9.7-3.8c.1 2.1.8 4.4 1.7 6.4.5 1 1 2 1.7 2.9.3.5.6.9 1 1.4l1.1 1.3c3 3.4 6.8 5.9 10.9 7.6l1.5.7 1.6.5c1.1.3 2.1.8 3.2 1 2.2.5 4.3 1.1 6.6 1.3l3.3.5 3.3.2c1.1.1 2.2.2 3.3.2h5.3c-.2.7-.2 1.3-.1 1.9.1.7.2 1.3.5 2-1.1 0-2.1.1-3.2 0-4.8 0-9.6-.2-14.3-.9-.6-.1-1.2-.1-1.8-.2l-1.8-.4-3.5-.7c-1.2-.3-2.3-.7-3.4-1l-1.6-.5c.5-.5.9-1.2 1.2-1.8.3-.7.6-1.5.7-2.3-.6.6-1 1.3-1.4 2-.3.7-.6 1.3-.7 2.1-.6-.2-1.1-.4-1.6-.6-1.5-.6-2.9-1.2-4.3-1.9.3-.3.6-.5.8-.8.3-.3.5-.6.8-.9.5-.7.9-1.4 1.2-2.2-.7.5-1.3 1.1-1.8 1.7-.2.3-.5.7-.7 1.1-.2.3-.3.7-.4 1.1-2.2-1.1-4.2-2.5-6-4.1.8-.4 1.4-.9 2-1.5.6-.6 1.2-1.3 1.6-2.1-.8.4-1.5 1-2.1 1.6-.6.6-1.1 1.2-1.5 2-.5-.5-1.1-.9-1.6-1.4-.5-.4-.8-.9-1.2-1.3-.4-.4-.8-.9-1.2-1.4-.7-1-1.4-1.9-2-3-1.2-2.1-2.1-4.3-2.4-6.7.2 2.4 1.1 4.7 2.2 6.9.5 1.1 1.2 2.1 1.9 3.1.3.5.8.9 1.1 1.4.4.4.8 1 1.2 1.4 3.4 3.5 7.6 6.1 12.1 7.9.6.2 1.1.5 1.7.7l1.7.6c1.2.4 2.3.8 3.5 1.1l3.6.8 1.8.4c.6.1 1.2.2 1.8.2 4.8.7 9.6.9 14.5 1 9.6 0 19.4-1.3 28.4-5 4.5-1.9 8.7-4.3 12.3-7.6 1.8-1.7 3.4-3.4 4.7-5.5 1.4-2 2.5-4.1 3.1-6.5-1.6 4.6-4.7 8.4-8.2 11.6-3.6 3.2-7.8 5.5-12.3 7.3-6.6 2.6-13.6 3.9-20.7 4.4.1-.6.1-1.1 0-1.6-.1-.6-.3-1.2-.6-1.8-.2.7-.2 1.3-.1 1.9.1.5.2 1.1.5 1.6-1.3.1-2.7.1-4 .2.2-.7.2-1.4.2-2.1-.1-.6-.2-1.2-.5-1.9h1.2l3.3-.2c1.1-.1 2.2-.1 3.3-.3l3.3-.5c4.4-.6 8.8-1.9 12.9-3.5 4.1-1.7 8-4.2 11.2-7.4.4-.4.8-.8 1.1-1.3l1.1-1.3.9-1.4.5-.7.4-.8c1-1.8 1.7-3.7 2.1-5.8 2.9.9 5.8 2.1 8.6 3.3l9 3.9c6 2.7 11.9 5.5 17.7 8.6.7.4 1.5.8 2.1 1.2.3.1.6.5.9.7.3.3.4.6.6.9.6 1.4.9 3 1.2 4.6.5 3.2.9 6.5 1.2 9.8.5 6.4.7 12.9.8 19.3l-22.5.1c.3-1.7.5-3.3.8-4.9.3-1.7.6-3.4 1-5 .7-3.3 1.5-6.7 2.7-9.8 1.1-3.1 3.2-5.9 5.3-8.6 2.2-2.6 4.6-5.1 7.1-7.4-2.8 2-5.3 4.4-7.6 6.9-1.2 1.3-2.2 2.6-3.2 4.1-1 1.4-1.8 3-2.4 4.6-1.2 3.2-2 6.6-2.5 10-.5 3.4-.9 6.7-1 10.1l-19.9.1-21.7-.6zm16.2-41.2c.3.7.7 1.2 1.2 1.7s1 .9 1.7 1.2c-.3-.7-.7-1.2-1.2-1.7s-1-1-1.7-1.2z" fill="#184f58" stroke-width="none" opacity="1"></path></g><g id="svga-group-head" transform="matrix(1,0,0,1,0,0)"><g id="svga-group-ears-left-move" transform="matrix(1,0,0,1,0,0)"><g id="svga-group-ears-left"><path id="SvgjsPath6156" d="M69.12 87.77s-3.29-8.06-6.27-11.95c0 0-1.72-1.36-3.37-2.59a2.608 2.608 0 0 0-3.59.45c-1.89 2.35-5.15 6.65-7.88 11.59-.45.82-.63 1.77-.48 2.7.34 2.01 1.03 5.64 1.87 7.11 1.19 2.09 6.12 7.32 9.56 9.11 0 0 3.88.6 6.87-2.09s3.29-14.33 3.29-14.33z" fill="#f0c7b1" stroke-width="none" opacity="1"></path><path id="SvgjsPath6157" d="M67.06 88.73c-.08-.25-6.48-8.56-8.98-10.14-2.49-1.58-7.73 6.57-7.98 9.31s2.49 7.9 4.82 9.39c2.33 1.5 7.56 2.08 10.47-2.16 2.91-4.24 1.67-6.4 1.67-6.4z" fill="#e1ac8f" stroke-width="none" opacity="1"></path><path id="SvgjsPath6158" d="M47.63 85.77c-.18.46-.28.95-.31 1.44-.03.5.07.99.14 1.45.15.94.32 1.89.51 2.83.2.94.42 1.88.74 2.8.31.95.92 1.78 1.5 2.53 1.19 1.52 2.52 2.91 3.92 4.23 1.41 1.31 2.88 2.57 4.63 3.51l.07.04.06.01c1.97.21 3.93-.17 5.65-1.11.84-.48 1.63-1.08 2.2-1.94.55-.83.84-1.75 1.13-2.65.53-1.82.79-3.68.99-5.54.2-1.86.27-3.72.28-5.6-.39-1.08-.81-2.11-1.25-3.16-.43-1.04-.91-2.07-1.39-3.09-.5-1.02-.99-2.04-1.56-3.02-.57-.98-1.16-1.95-1.85-2.88l-.02-.03-.03-.03-2.24-1.76-1.15-.87c-.44-.31-.96-.5-1.5-.54a2.91 2.91 0 0 0-1.56.32c-.47.23-.88.68-1.14 1.05-.58.76-1.15 1.53-1.71 2.31-2.19 3.13-4.31 6.28-6.11 9.7zm.02 1.45c0-.46.09-.92.25-1.35.81-1.68 1.83-3.33 2.87-4.91 1.05-1.59 2.17-3.13 3.35-4.62.59-.75 1.18-1.49 1.79-2.22.54-.75 1.34-1.14 2.19-1.07.42.03.82.19 1.15.43l1.12.87 2.24 1.7c1.33 1.75 2.42 3.72 3.48 5.68.53.99 1.02 2 1.53 3.01.5 1 .99 2.03 1.46 3.04-.12 1.84-.35 3.7-.62 5.53-.28 1.83-.64 3.66-1.19 5.4-.31.85-.62 1.73-1.12 2.44-.47.69-1.22 1.23-1.99 1.66-1.52.84-3.37 1.17-5.08.99-1.58-.89-3.04-2.07-4.42-3.32-1.4-1.27-2.72-2.64-3.92-4.08-.6-.74-1.16-1.45-1.47-2.32-.34-.86-.6-1.78-.83-2.7-.23-.92-.43-1.85-.62-2.78-.07-.48-.18-.93-.17-1.38z" fill="#e1ac8f" stroke-width="none" opacity="1"></path><path id="SvgjsPath6159" d="M52.04 87.76c.28-.91.7-1.72 1.16-2.52.45-.79.97-1.54 1.51-2.27s1.12-1.43 1.79-2.06c.17-.16.35-.31.57-.42.11-.05.25-.11.43-.05.16.08.19.19.28.28.25.39.47.78.67 1.19.82 1.61 1.6 3.24 2.26 4.93.33.84.62 1.7.85 2.59.12.44.22.89.3 1.34.06.45.15.96.03 1.45-.21.97-.78 1.74-1.34 2.45-.58.7-1.24 1.33-1.96 1.89l-.05-.06c.61-.66 1.18-1.35 1.68-2.08.5-.72.93-1.52 1.08-2.32.12-.77-.17-1.66-.41-2.5-.26-.85-.52-1.7-.8-2.55-.55-1.7-1.12-3.41-1.88-5.03-.19-.4-.4-.8-.64-1.16-.06-.06-.14-.18-.19-.19-.04-.02-.13 0-.21.05-.17.09-.34.24-.5.39-.63.61-1.13 1.37-1.62 2.11-.93 1.51-1.82 3.1-2.31 4.74-.05.2-.1.41-.11.6-.01.1-.01.18 0 .26.01.09.03.21.05.31.08.42.19.84.33 1.25.28.82.64 1.62 1.07 2.37.11.19.22.37.34.55.06.09.12.17.18.26.06.08.15.17.12.14-.03.01.11.01.27-.06.16-.09.34-.18.5-.31.67-.51 1.29-1.17 1.81-1.85.06-.09.13-.17.18-.26l.08-.13.03-.09c.04-.15.03-.36 0-.56-.06-.42-.18-.84-.32-1.26-.28-.84-.62-1.68-.99-2.5l.07-.04c.48.77.92 1.56 1.29 2.39.18.42.35.85.46 1.31.05.23.09.48.05.78-.02.08-.04.16-.07.24-.03.06-.06.11-.09.16-.06.11-.13.2-.19.3-.53.77-1.12 1.47-1.85 2.09-.18.15-.39.3-.62.43-.24.1-.58.27-1.02.05-.23-.15-.27-.24-.36-.33-.07-.1-.15-.19-.22-.29-.14-.19-.26-.39-.39-.59-.47-.81-.86-1.65-1.13-2.54-.13-.45-.24-.9-.31-1.37-.01-.12-.03-.23-.04-.36-.01-.14-.01-.28.01-.41.04-.27.1-.51.17-.74z" fill="#c27b55" stroke-width="none" opacity="1"></path></g></g><g id="svga-group-ears-right-move" transform="matrix(1,0,0,1,0,0)"><g id="svga-group-ears-right"><path id="SvgjsPath6160" d="M130.88 87.77s3.29-8.06 6.27-11.95c0 0 1.72-1.36 3.37-2.59 1.12-.84 2.71-.64 3.59.45 1.89 2.35 5.15 6.65 7.88 11.59.45.82.63 1.77.48 2.7-.34 2.01-1.03 5.64-1.87 7.11-1.19 2.09-6.12 7.32-9.56 9.11 0 0-3.88.6-6.87-2.09-2.99-2.68-3.29-14.33-3.29-14.33z" fill="#f0c7b1" stroke-width="none" opacity="1"></path><path id="SvgjsPath6161" d="M132.94 88.73c.08-.25 6.48-8.56 8.98-10.14 2.49-1.58 7.73 6.57 7.98 9.31s-2.49 7.9-4.82 9.39c-2.33 1.5-7.56 2.08-10.47-2.16-2.91-4.24-1.67-6.4-1.67-6.4z" fill="#e1ac8f" stroke-width="none" opacity="1"></path><path id="SvgjsPath6162" d="M146.25 76.06c-.56-.78-1.12-1.55-1.71-2.31-.26-.37-.66-.82-1.14-1.05a2.91 2.91 0 0 0-1.56-.32c-.54.04-1.06.23-1.5.54l-1.15.87-2.26 1.77-.03.03-.02.03c-.69.92-1.28 1.89-1.85 2.88-.57.98-1.06 2-1.56 3.02-.49 1.02-.96 2.05-1.39 3.09-.43 1.05-.86 2.08-1.25 3.16.01 1.88.08 3.73.28 5.6.2 1.86.46 3.72.99 5.54.3.9.58 1.82 1.13 2.65.57.86 1.36 1.46 2.2 1.94 1.72.95 3.68 1.32 5.65 1.11l.06-.01.07-.04c1.75-.94 3.22-2.2 4.63-3.51 1.4-1.32 2.73-2.71 3.92-4.23.58-.75 1.19-1.58 1.5-2.53.33-.92.54-1.86.74-2.8.2-.94.36-1.88.51-2.83.07-.46.17-.95.14-1.45-.02-.5-.13-.98-.31-1.44-1.77-3.42-3.89-6.57-6.09-9.71zm5.91 12.54c-.18.93-.38 1.86-.62 2.78-.23.92-.49 1.83-.83 2.7-.31.87-.87 1.58-1.47 2.32a41.929 41.929 0 0 1-3.92 4.08c-1.38 1.25-2.84 2.43-4.42 3.32-1.71.18-3.55-.15-5.08-.99-.77-.43-1.52-.96-1.99-1.66-.5-.71-.81-1.59-1.12-2.44-.55-1.74-.91-3.57-1.19-5.4-.26-1.83-.49-3.69-.62-5.53.47-1 .96-2.03 1.46-3.04.51-1 1-2.02 1.53-3.01 1.06-1.96 2.15-3.92 3.48-5.68l2.24-1.7 1.12-.87c.33-.25.73-.4 1.15-.43.85-.07 1.65.32 2.19 1.07.61.73 1.21 1.47 1.79 2.22 1.18 1.49 2.3 3.03 3.35 4.62 1.04 1.58 2.06 3.23 2.87 4.91.16.43.25.89.25 1.35.03.45-.08.9-.17 1.38z" fill="#e1ac8f" stroke-width="none" opacity="1"></path><path id="SvgjsPath6163" d="M147.96 87.76c-.28-.91-.7-1.72-1.16-2.52-.45-.79-.97-1.54-1.51-2.27s-1.12-1.43-1.79-2.06c-.17-.16-.35-.31-.57-.42-.11-.05-.25-.11-.43-.05-.16.08-.19.19-.28.28-.25.39-.47.78-.67 1.19-.82 1.61-1.6 3.24-2.26 4.93-.33.84-.62 1.7-.85 2.59-.12.44-.22.89-.3 1.34-.06.45-.15.96-.03 1.45.21.97.78 1.74 1.34 2.45.58.7 1.24 1.33 1.96 1.89l.05-.06c-.61-.66-1.18-1.35-1.68-2.08-.5-.72-.93-1.52-1.08-2.32-.12-.77.17-1.66.41-2.5.26-.85.52-1.7.8-2.55.55-1.7 1.12-3.41 1.88-5.03.19-.4.4-.8.64-1.16.06-.06.14-.18.19-.19.04-.02.13 0 .21.05.17.09.34.24.5.39.63.61 1.13 1.37 1.62 2.11.93 1.51 1.82 3.1 2.31 4.74.05.2.1.41.11.6.01.1.01.18 0 .26-.01.09-.03.21-.05.31-.08.42-.19.84-.33 1.25-.28.82-.64 1.62-1.07 2.37-.11.19-.22.37-.34.55-.06.09-.12.17-.18.26-.06.08-.15.17-.12.14.03.01-.11.01-.27-.06-.16-.09-.34-.18-.5-.31-.67-.51-1.29-1.17-1.81-1.85-.06-.09-.13-.17-.18-.26l-.08-.13-.03-.09c-.04-.15-.03-.36 0-.56.06-.42.18-.84.32-1.26.28-.84.62-1.68.99-2.5l-.07-.04c-.48.77-.92 1.56-1.29 2.39-.18.42-.35.85-.46 1.31-.05.23-.09.48-.05.78.02.08.04.16.07.24.03.06.06.11.09.16.06.11.13.2.19.3.53.77 1.12 1.47 1.85 2.09.18.15.39.3.62.43.24.1.58.27 1.02.05.23-.15.27-.24.36-.33.07-.1.15-.19.22-.29.14-.19.26-.39.39-.59.47-.81.86-1.65 1.13-2.54.13-.45.24-.9.31-1.37.01-.12.03-.23.04-.36.01-.14.01-.28-.01-.41-.04-.27-.1-.51-.17-.74z" fill="#c27b55" stroke-width="none" opacity="1"></path></g></g><g id="svga-group-faceshape-wrap"><g id="svga-group-faceshape-single"><path id="SvgjsPath6242" d="M140.4 54.9c-2.2-10-6.3-16-15.2-20.8-9.3-5-25.2-4.8-25.2-4.8s-15.9-.2-25.2 4.8c-8.8 4.8-13 10.8-15.2 20.8-.9 4 0 13.6 0 13.6s1.2 11.9 1.2 15.3-.6 9.6.2 16.4 6.8 23.5 18.1 37.6 20.9 13.8 20.9 13.8 9.6.3 20.9-13.8 17.3-30.9 18.1-37.6c.8-6.8.2-13 .2-16.4s1.2-15.3 1.2-15.3c-.1-.1.9-9.6 0-13.6z" fill="#f0c7b1" stroke-width="none" opacity="1"></path><path id="SvgjsPath6243" d="M140.4 54.9c-2.2-10-6.3-16-15.2-20.8-9.3-5-25.2-4.8-25.2-4.8s-15.9-.2-25.2 4.8c-8.8 4.8-13 10.8-15.2 20.8-.9 4 0 13.6 0 13.6s1.2 11.9 1.2 15.3-.6 9.6.2 16.4 6.8 23.5 18.1 37.6 20.9 13.8 20.9 13.8 9.6.3 20.9-13.8 17.3-30.9 18.1-37.6c.8-6.8.2-13 .2-16.4s1.2-15.3 1.2-15.3c-.1-.1.9-9.6 0-13.6zm0 10.1c-.1 1.1-.2 2.2-.3 3.4l-.5 4.9c-.2 1.6-.4 3.3-.5 4.9-.2 1.7-.3 3.3-.4 5-.1 1.7 0 3.3 0 5 0 3.3-.1 6.6-.4 9.8 0 .4-.1.8-.1 1.2l-.1.6-.1.6c-.1.8-.3 1.6-.5 2.3-.4 1.6-.9 3.1-1.4 4.7-1.1 3.1-2.3 6.1-3.7 9.1s-2.9 5.9-4.6 8.7c-.4.7-.8 1.4-1.3 2.1-.4.7-.8 1.4-1.3 2.1l-1.4 2-1.4 2c-.5.7-1 1.3-1.5 2l-.7 1-.4.5-.4.5-1.6 1.9c-.5.6-1.1 1.2-1.7 1.8-2.3 2.3-4.7 4.4-7.4 6.1-1.4.8-2.7 1.6-4.2 2.1-.7.3-1.5.5-2.2.7s-1.5.3-2.2.4c-.6 0-1.4-.1-2.1-.2-.7-.2-1.5-.4-2.2-.6-1.5-.5-2.9-1.2-4.3-2-2.8-1.6-5.3-3.7-7.6-5.9-2.3-2.3-4.4-4.8-6.3-7.4-2-2.6-3.8-5.4-5.5-8.1-1.7-2.8-3.3-5.7-4.7-8.7-1.4-3-2.7-6-3.8-9.1-.3-.8-.5-1.6-.8-2.3l-.4-1.2-.3-1.2-.3-1.2c-.1-.4-.2-.8-.2-1.2-.1-.4-.1-.8-.2-1.2l-.1-1.2c-.3-3.3-.4-6.6-.3-9.9 0-1.7.1-3.3.1-5s-.1-3.3-.3-5c-.2-3.3-.5-6.6-.8-9.9s-.4-6.6-.3-9.9c0-.8.1-1.6.2-2.4.1-.8.2-1.5.5-2.3.4-1.6.9-3.1 1.5-4.7 1.2-3 2.8-5.8 4.9-8.2.5-.6 1.1-1.1 1.7-1.7.6-.5 1.2-1 1.9-1.5.6-.5 1.3-.9 2-1.4.7-.4 1.4-.9 2.1-1.2.4-.2.7-.4 1.1-.6l1.1-.5.5-.3.6-.2 1.1-.4c.4-.1.8-.3 1.1-.4.4-.1.8-.3 1.1-.4l1.2-.3 1.2-.3c3.2-.7 6.4-1.2 9.6-1.5 1.6-.1 3.3-.3 4.9-.3.8 0 1.6-.1 2.4-.1h2.4c3.3.1 6.5.3 9.8.7 3.2.4 6.5 1.1 9.5 2.2.4.1.8.3 1.1.4l1.1.5.6.3.5.3 1.1.6c1.4.8 2.8 1.7 4.1 2.7s2.5 2.2 3.5 3.4c1.1 1.3 2 2.6 2.8 4.1 1.6 2.9 2.5 6.1 3.3 9.3.2 1.1.3 2.2.3 3.4v3.4c0 1 0 2.1-.1 3.2z" fill="#c27b55" stroke-width="none" opacity="1"></path></g></g><g id="svga-group-mouth-single-move" transform="matrix(1,0,0,1,0,0)"><g id="svga-group-mouth-single"><path id="SvgjsPath6327" d="M115.95 118.85c-2.72.91-5.53 1.92-7.88 2.91-2.5 1.06-4.07 2.57-6.76 3.19-2.65.62-5.3-.52-8.01-.37-2.69.14-6.08 2.24-7.87-.41-.95-1.41-2.74.41-1.63 1.37 1.64 1.41 3.91 2.59 5.96 2.73 3.29.23 7.06.3 10.34-.05 6.21-.67 11.72-3.75 17.44-6.41 1.86-1.3 1.02-3.63-1.59-2.96z" fill="#ff5027" stroke-width="none" opacity="1"></path><path id="SvgjsPath6328" d="M107.55 131.3c-1.8-.09-3.6.28-5.4.35-1.81.07-3.62-.07-5.43-.06-.38 0-.47.57-.09.67 3.35.88 7.85 1.04 11.07-.39.3-.13.13-.55-.15-.57z" fill="#e1ac8f" stroke-width="none" opacity="1"></path></g></g><g id="svga-group-eyes-left-move" transform="matrix(1,0,0,1,0,0)"><g id="svga-group-eyes-left"><g id="svga-group-eyesback-left"><path id="SvgjsPath6202" d="M80.2 74.2c7.5 0 13.5 5.8 13.5 13s-6 13-13.5 13-13.5-5.8-13.5-13 6-13 13.5-13z" fill="#ffffff" stroke-width="none" opacity="1"></path></g><g id="svga-group-eyesiriswrapper-left" transform="matrix(1,0,0,1,0,0)"><g id="svga-group-eyesiriscontrol-left" transform="matrix(1,0,0,1,0,0)"><g id="svga-group-eyesiris-left"><path id="SvgjsPath6277" d="M80.2 81.6c3.1 0 5.6 2.5 5.6 5.6s-2.5 5.6-5.6 5.6-5.6-2.5-5.6-5.6 2.5-5.6 5.6-5.6z" fill="#4e60a3" stroke-width="none" opacity="1"></path><path id="SvgjsPath6278" d="M80.2 84.2c1.7 0 3 1.3 3 3s-1.3 3-3 3-3-1.3-3-3 1.3-3 3-3z" fill="#000000" stroke-width="none" opacity="1"></path><path id="SvgjsPath6279" d="m79.5 84.8-.6-.6c-.2-.2-.5-.3-.8-.3s-.6.1-.8.3c-.2.2-.3.5-.3.8s.1.6.3.8l.6.6c.2.2.5.3.7.3.3 0 .6-.1.7-.3.6-.6.6-1.2.2-1.6zm2.7 5.1c1 0 1-1.5 0-1.5-.9 0-.9 1.5 0 1.5z" fill="#ffffff" stroke-width="none" opacity="1"></path></g></g></g><g id="svga-group-eyesfront-left"><path id="SvgjsPath6210" d="M80.2 73.7c-7.8 0-14.1 6.1-14.1 13.6s6.3 13.6 14.1 13.6 14.1-6.1 14.1-13.6S88 73.7 80.2 73.7zm-4.9 20.2c-4.8-1.7-6.4-6.7-7.2-10.1-.9-3.5 13.8-3.5 17.5-.4 3.8 3 5.3 7.3 5.5 9.6.1-.1-11 2.6-15.8.9z" fill="#f0c7b1" stroke-width="none" opacity="1"></path><path id="SvgjsPath6211" d="M91.1 92.5c-.1-.5-.1-1-.3-1.4l-.3-.9c-.5-1.9-1.5-4.5-3-6.2-1.2-1.3-4.1-4.4-9-4.4s-8.2 1.6-8.8 1.9c-.2.1-.5.3-.7.5-.4.2-.8.5-1.1 1-.1.2-.1.3-.1.5-.1.1-.1.2-.1.2h.1c0 .1 0 .3.1.4.1.3.2.6.2.9l.6 1.8c.4 1.2.9 2.3 1.6 3.4.7 1.1 1.5 2 2.5 2.8s2.2 1.3 3.4 1.6c2.5.5 5 .3 7.5 0s4.9-.8 7.3-1.5c.2-.2.2-.4.1-.6zm0 .4c-2.4.4-4.9.8-7.3 1.1-1.2.1-2.5.2-3.7.2-1.2 0-2.5 0-3.7-.2-2.4-.4-4.6-1.9-5.8-4-.7-1-1.2-2.2-1.6-3.3-.2-.6-.4-1.2-.5-1.8-.1-.3-.2-.6-.2-.9 0-.2-.1-.3-.1-.4 1.4-.4 6.6-1.9 10.5-1.9 4.5.1 7.9 3.6 9.3 5.1 1.2 1.1 3 5.1 3.1 6.1z" fill="#000000" stroke-width="none" opacity="1"></path></g></g></g><g id="svga-group-eyes-right-move" transform="matrix(1,0,0,1,0,0)"><g id="svga-group-eyes-right"><g id="svga-group-eyesback-right"><path id="SvgjsPath6203" d="M119.8 74.2c7.5 0 13.5 5.8 13.5 13s-6 13-13.5 13-13.5-5.8-13.5-13 6-13 13.5-13z" fill="#ffffff" stroke-width="none" opacity="1"></path></g><g id="svga-group-eyesiriswrapper-right" transform="matrix(1,0,0,1,0,0)"><g id="svga-group-eyesiriscontrol-right" transform="matrix(1,0,0,1,0,0)"><g id="svga-group-eyesiris-right"><path id="SvgjsPath6280" d="M119.8 82.3c2.7 0 4.9 2.2 4.9 4.9s-2.2 4.9-4.9 4.9-4.9-2.2-4.9-4.9 2.2-4.9 4.9-4.9z" fill="#4e60a3" stroke-width="none" opacity="1"></path><path id="SvgjsPath6281" d="M119.8 84.6c1.4 0 2.6 1.2 2.6 2.6s-1.2 2.6-2.6 2.6-2.6-1.2-2.6-2.6 1.2-2.6 2.6-2.6z" fill="#000000" stroke-width="none" opacity="1"></path><path id="SvgjsPath6282" d="M119.2 85.1c-.2-.2-.3-.4-.5-.5-.2-.2-.4-.3-.7-.3-.2 0-.5.1-.7.3-.2.2-.3.4-.3.7 0 .2.1.5.3.7.2.2.4.3.5.5.2.2.4.3.7.3.2 0 .5-.1.7-.3.3-.5.3-1.1 0-1.4zm2.4 4.5c.8 0 .9-1.3 0-1.3-.8-.1-.8 1.3 0 1.3z" fill="#ffffff" stroke-width="none" opacity="1"></path></g></g></g><g id="svga-group-eyesfront-right"><path id="SvgjsPath6212" d="M119.8 73.7c-7.8 0-14.1 6.1-14.1 13.6s6.3 13.6 14.1 13.6 14.1-6.1 14.1-13.6-6.3-13.6-14.1-13.6zm5.3 19.5c-4.4 1.8-15 .1-15 .1.1-1.9 1.3-5.8 4.7-8.7 3.4-2.9 17.2-3.8 16.6-.7-.7 3.1-1.9 7.6-6.3 9.3z" fill="#f0c7b1" stroke-width="none" opacity="1"></path><path id="SvgjsPath6215" d="M131.6 84.1s0-1.3-.9-1.7c-.6-.2-4.4-1-9.1-.7-2.6.2-4.6 1.1-6.1 2.1-.3.2-.6.3-.8.5-.9.8-1.7 1.6-2.4 2.6-1.3 1.9-2.3 4.1-2.3 6.4 0 .3.1.8.1.8s.1-.3.2-.7c2.2.4 4.3.7 6.6.8 1.2.1 2.3.1 3.4.1 1.2 0 2.3-.2 3.4-.4s2.2-.8 3.2-1.4c.9-.7 1.7-1.6 2.4-2.5.6-1 1.1-2 1.5-3.1.2-.5.3-1.1.5-1.7l.2-.8c0-.1 0-.1.1-.2v-.1zm-.4.1-.2.8c-.1.6-.3 1.1-.4 1.7-.4 1.1-.8 2.1-1.4 3.1-1.2 1.9-3.3 3.2-5.5 3.6-.6.1-1.1.2-1.7.3-.6 0-1.1.1-1.7.1-1.1.1-2.3.1-3.4 0-2.2-.1-4.4-.2-6.6-.4.4-1.5 1.5-4.6 2.4-5.7 1.2-1.5 4.2-4.5 8.5-4.9 3.6-.3 8.6.8 10 1.2v.2z" fill="#000000" stroke-width="none" opacity="1"></path></g></g></g><g id="svga-group-facehighlight-single"></g><g id="svga-group-eyebrows-left-move" transform="matrix(1,0,0,1,0,0)"><g id="svga-group-eyebrows-left-rotate" transform="matrix(1,1.7453292519943295e-9,-1.7453292519943295e-9,1,1.2391838311032188e-7,-1.3753196981269866e-7)"><g id="svga-group-eyebrows-left"><path id="SvgjsPath6124" d="M92.8 69.5s-.2 3.9-1 7.1c0 0-16.1-4.6-18-4.8-1.9-.2-8.4 4.1-8.4 4.1l6.5-9.8 3.8.3-.6-.9 8 1.9 7.5 1.2.5 2.8.4-2.8.5 2.8.8-1.9z" fill="#2a232b" stroke-width="none" opacity="1"></path><path id="SvgjsPath6125" d="m92.8 69.5-.1.1c-.1.3-.2.5-.4.8-.1.2-.2.4-.3.7l-.4-2.5-.2-.9-.2.9-.3 1.6-.3-1.6v-.2h-.2l-3.9-.7-1.9-.3c-.6-.1-1.3-.2-1.9-.3-2.6-.6-5.1-1.2-7.7-1.8l-.8-.2.5.8.3.1-3.1-.2h-.2l-.1.1c-1.1 1.7-2.1 3.3-3.2 5l-3.2 5-.4.6.6-.4c1.9-1.3 3.9-2.5 6-3.4.5-.2 1.1-.4 1.6-.6.3-.1.5-.1.8-.1l.4.1.4.1c1.1.3 2.3.6 3.4.9 2.3.7 4.5 1.3 6.8 1.9 2.3.6 4.5 1.2 6.8 1.8l.2.1v-.2c.3-1.2.4-2.4.6-3.6.1-.6.1-1.2.2-1.8 0-.3 0-.6.1-.9V69.6l.1-.1c0 .1 0 0 0 0zm-.1.4-.1.4-.1.9-.3 1.8c-.2 1.1-.4 2.2-.7 3.3-2.2-.7-4.4-1.3-6.6-2-2.3-.7-4.5-1.3-6.8-1.8-1.1-.3-2.3-.5-3.4-.8l-.4-.1-.4-.1c-.3 0-.6 0-.9.1-.6.2-1.1.4-1.6.6-1.9.9-3.7 1.9-5.5 3.1l2.9-4.2c1.1-1.6 2.2-3.2 3.2-4.7l3.6.3.7.1-.4-.7-.1-.1c2.3.6 4.6 1.1 6.9 1.6l3.9.6 3.7.5.5 2.5.2 1.2.2-1.2.3-2 .4 1.9.1.3.1-.3.3-.9c.1-.3.2-.6.3-.8v.5zm-2.9 4.7c0-.8-.1-1.7-.2-2.5-.1-.4-.1-.8-.2-1.2s-.2-.8-.4-1.2c.1.4.1.8.1 1.2 0 .4.1.8.2 1.2.1.8.3 1.7.5 2.5zm-1.2-1.7c-.2-.3-.3-.7-.5-1l-.5-1-1-1.9-.2-.5v.6c0 1.6 0 3.2.1 4.8l.3-.1c-.3-.4-.6-.9-.9-1.3l-.9-1.2c-.3-.4-.6-.8-1-1.2-.3-.4-.7-.8-1.1-1.1.3.4.7.8 1 1.2l.9 1.2c.3.4.6.8.9 1.3.3.4.6.9.8 1.3l.3.5v-.6c0-1.6-.1-3.2-.1-4.8l-.2.1 1.1 1.9.6.9c0 .3.2.6.4.9z" fill="#1b141c" stroke-width="none" opacity="1"></path></g></g></g><g id="svga-group-eyebrows-right-move" transform="matrix(1,0,0,1,0,0)"><g id="svga-group-eyebrows-right-rotate" transform="matrix(1,1.7453292519943295e-9,-1.7453292519943295e-9,1,1.2705996255135688e-7,-2.123193070246998e-7)"><g id="svga-group-eyebrows-right"><path id="SvgjsPath6126" d="M107.2 73.2s.9 3.1 2.3 5.5c0 0 14.9-6.1 16.8-6.5 1.9-.4 9 2 9 2l-8.2-6.9-3.6.8.4-.8-7.5 2.7-7.1 2v2.3l-.9-2.2v2.3l-1.2-1.2z" fill="#2a232b" stroke-width="none" opacity="1"></path><path id="SvgjsPath6127" d="m135.4 74.1-4-3.5c-1.3-1.2-2.7-2.3-4.1-3.5l-.1-.1h-.1l-3 .6.1-.2.4-.7-.8.3c-2.4.8-4.8 1.7-7.2 2.6l-1.8.6-1.8.6-3.7 1.1h-.2v1.5l-.6-1.3-.3-.7v.7l.1 2c-.1-.2-.3-.3-.4-.5-.2-.2-.3-.4-.5-.6l-.1-.1V73.2l.1.2.1.4c.1.2.2.5.2.7.2.5.3.9.5 1.4.3.9.8 1.9 1.2 2.8l.1.2.2-.1c2.1-.8 4.2-1.6 6.4-2.5 2.1-.8 4.2-1.7 6.3-2.5 1.1-.4 2.1-.8 3.2-1.2l.4-.1.4-.1c.3-.1.5-.1.8-.1.6 0 1.1.1 1.7.2 2.2.4 4.4 1.1 6.6 1.8l.6.2-.7-.4zm-8.3-2.1c-.3 0-.6 0-.9.1l-.4.1-.4.1c-1.1.3-2.2.7-3.2 1.1-2.2.8-4.3 1.6-6.4 2.4-2.1.8-4.1 1.7-6.1 2.6-.5-.8-.9-1.7-1.2-2.5-.2-.4-.4-.9-.6-1.4l-.3-.7-.1-.3-.1-.2v-.1c.2.2.3.4.4.6.2.2.3.4.5.7l.2.2V72.8l.6 1.5.4.9v-3.1l3.6-1c1.2-.3 2.5-.7 3.7-1 2.2-.8 4.3-1.5 6.5-2.3v.1l-.3.6.7-.2 3.5-.8c1.3 1.1 2.7 2.2 4 3.3l3.6 2.9c-2-.6-3.9-1.2-6-1.6-.6.1-1.1 0-1.7-.1zm-16 4.7c-.2-.7-.2-1.3-.2-2v-1c0-.3 0-.7.2-1 0 .3.1.7.1 1s.1.7.1 1c-.1.7-.1 1.4-.2 2zm.9-1.5c.1-.3.2-.6.3-.8l.3-.8.6-1.7.2-.4.1.4c.3 1.3.5 2.6.8 3.8h-.3l.6-1.2c.2-.4.4-.8.7-1.1.2-.4.5-.7.7-1.1s.5-.7.8-1c-.3.3-.5.7-.7 1.1-.2.4-.4.7-.7 1.1l-.6 1.2-.6 1.2-.2.4-.1-.4c-.3-1.3-.5-2.6-.8-3.8h.3l-.7 1.6-.4.8c0 .2-.1.4-.3.7z" fill="#1b141c" stroke-width="none" opacity="1"></path></g></g></g><g id="svga-group-beardwrap"><g id="svga-group-beard-single-move" transform="matrix(1,0,0,1,0,0)"><g id="svga-group-beard-single"></g></g></g><g id="svga-group-mustache-single-move" transform="matrix(1,0,0,1,0,0)"><g id="svga-group-mustache-single"></g></g><g id="svga-group-nose-single-move" transform="matrix(1,0,0,1,0,0)"><g id="svga-group-nose-single"><path id="SvgjsPath6312" d="M99.1 116.5c.67.12 4.53-3.31 4.53-3.31s2.06 1.59 3.62 1.43c1.56-.16 2.44-1.08 3-1.96.56-.88-.89-3.1-1.78-4.41-.9-1.31-3.54-5.22-4.09-7.02-1.07-3.45-3-4.76-4.92-4.64-1.92.12-4.04 1.52-4.6 3.44-.56 1.92-.72 4.28-1.8 5.76s-3.32 4-3.56 4.72c-.24.72-.11 2.8 1.24 3.56 1.73.97 4.3-.51 4.3-.51s3.18 2.78 4.06 2.94z" fill="#f0c7b1" stroke-width="none" opacity="1"></path><path id="SvgjsPath6313" d="M110.28 110.87c-.42-1.01-1.08-1.86-1.81-2.61.57.88 1.08 1.8 1.39 2.76.15.48.24.97.16 1.42-.05.23-.12.41-.26.6-.13.2-.29.39-.47.54-.69.66-1.7.91-2.68.78-.49-.06-.99-.2-1.46-.39-.45-.16-.86-.39-1.29-.62.38-.56.72-1.15 1.02-1.76-.97.91-1.89 1.83-2.87 2.64-.49.4-.98.8-1.51 1.09-.51.3-1.07.55-1.51.52-.12.01-.21-.02-.31-.04-.09-.05-.17-.06-.3-.16-.24-.15-.49-.36-.74-.55-.5-.39-.99-.82-1.49-1.23-.99-.84-1.99-1.69-3.07-2.48a21.8 21.8 0 0 0 1.68 2.24c-.5.22-1.01.41-1.53.52-.64.12-1.3.15-1.84-.1-1.09-.53-1.72-1.83-1.54-2.94.05-.28.13-.5.3-.74.17-.26.36-.53.56-.79.4-.52.82-1.02 1.26-1.52l.66-.74c.26-.28.46-.56.67-.84.41-.57.77-1.18 1.07-1.83.3-.65.48-1.4.59-2.06.12-.68.22-1.35.3-2.02.15-1.35.27-2.69.31-4.04.1-2.7.03-5.42-.51-8.07.05 2.69-.14 5.35-.4 8-.15 1.32-.29 2.65-.5 3.96-.1.66-.2 1.31-.32 1.96-.12.66-.27 1.22-.54 1.79a9.34 9.34 0 0 1-.94 1.65c-.18.26-.37.53-.57.74-.23.26-.45.51-.66.78-.43.53-.85 1.07-1.24 1.63-.2.28-.39.57-.57.88-.2.33-.34.76-.37 1.14-.13 1.57.85 3.05 2.25 3.55.73.23 1.47.11 2.12-.11.54-.19 1.03-.46 1.49-.77.24.28.47.57.71.84.44.5.91.96 1.41 1.42.25.23.51.44.82.65.13.1.36.22.57.3.22.06.44.12.66.11.88 0 1.55-.38 2.14-.76.58-.41 1.1-.86 1.55-1.37.44-.48.84-.99 1.21-1.53.75.66 1.64 1.25 2.68 1.45.54.12 1.11.12 1.66 0 .55-.14 1.07-.41 1.49-.8.21-.19.39-.42.54-.65.17-.23.29-.54.32-.84.06-.55-.08-1.1-.29-1.6z" fill="#c27b55" stroke-width="none" opacity="1"></path></g></g><g id="svga-group-hair-front"><path id="SvgjsPath6349" d="M58.02 71.24s1.85 1.66 2.59 3.33c.74 1.66 0 4.62.55 4.99.55.37 2.4-4.99 2.4-4.99l1.29-21.45 16.09-14.98 6.66 7.21s17.01.92 25.34.55l7.03-5.18 15.54 13.32.55 20.71 2.4 4.62s.74-5.18 1.11-5.92c.37-.74 2.03-2.59 2.03-2.59s1.48-13.5.74-17.38-5.55-13.69-14.24-20.16-35.69-5.55-40.5-5.18c-4.81.37-15.17 3.51-15.17 3.51l.92 1.29-2.59 1.11-.37 1.48s-5.36 3.33-7.4 5.73-3.88 7.03-4.44 10.91-.53 19.07-.53 19.07z" fill="#a68469" stroke-width="none" opacity="1"></path><path id="SvgjsPath6350" d="M58.07 71.22c.89.82 1.77 1.77 2.4 2.86.69 1.12.63 2.47.62 3.7 0 .31-.01.62 0 .93.01.15.02.3.05.44.01.14.12.27.1.26-.06.02.12-.1.17-.22.08-.12.16-.25.23-.38.14-.27.27-.55.4-.83.49-1.14.91-2.31 1.31-3.49l-.01.06 1.15-21.46.01-.15.11-.11L80.66 37.8l.33-.3.3.33 6.65 7.22-.29-.14c4.21.23 8.43.4 12.65.56 4.22.14 8.44.26 12.65.14l-.16.06 7.07-5.12.14-.1.13.11 15.49 13.37.05.04v.07l.64 20.71-.03-.1 2.42 4.61-.49.08c.22-1.54.45-3.08.75-4.62.08-.39.15-.77.28-1.17.16-.46.42-.75.65-1.08.48-.63.98-1.23 1.5-1.82l-.08.17c.4-4.12.74-8.25.84-12.37.01-2.06.12-4.14-.5-6.04-.6-1.93-1.51-3.79-2.5-5.58-2-3.58-4.5-6.89-7.42-9.75-1.46-1.42-3.02-2.82-4.72-3.86-1.67-1.1-3.65-1.71-5.58-2.32-3.95-1.06-8.05-1.62-12.16-2-4.11-.36-8.24-.51-12.38-.52-2.07 0-4.13.02-6.2.1-1.03.04-2.06.09-3.08.16-1 .09-2.01.25-3.02.42-4.04.76-8.05 1.84-12.02 2.98l.22-.63.92 1.3.29.41-.46.19-2.6 1.09.22-.26-.38 1.48-.04.15-.13.08c-1.41.88-2.81 1.82-4.15 2.81-1.32 1.01-2.66 2.04-3.63 3.34-1.92 2.68-3.12 5.89-3.82 9.12-.35 1.62-.4 3.3-.51 4.98-.09 1.68-.16 3.36-.21 5.04-.1 3.36-.17 6.76-.22 10.08zm-.09.04c-.04-3.4-.04-6.74-.01-10.11.02-1.68.05-3.36.1-5.05.08-1.68.12-3.38.45-5.05.32-1.67.81-3.3 1.43-4.88.63-1.57 1.37-3.12 2.39-4.52 1.03-1.42 2.4-2.47 3.72-3.52 1.35-1.03 2.74-1.99 4.17-2.9l-.17.23.36-1.48.04-.18.18-.08 2.58-1.13-.17.6-.93-1.29-.34-.47.55-.17c3.98-1.2 7.98-2.32 12.08-3.15 1.03-.19 2.06-.38 3.13-.47 1.05-.08 2.09-.13 3.12-.17 2.08-.08 4.16-.11 6.24-.11 4.16 0 8.32.14 12.47.5 4.15.37 8.3.92 12.35 2.04 2 .65 4.03 1.28 5.84 2.47 1.82 1.13 3.36 2.54 4.87 4.01 2.98 2.95 5.51 6.34 7.53 10.01 1 1.84 1.9 3.74 2.51 5.78.32 1.01.45 2.12.48 3.16.02 1.05.02 2.09-.02 3.13-.16 4.16-.54 8.29-.99 12.42l-.01.1-.07.07c-.51.57-1.02 1.16-1.49 1.76-.22.3-.48.62-.57.9-.11.34-.19.73-.27 1.1-.31 1.51-.55 3.05-.78 4.58l-.12.8-.37-.72-2.39-4.63-.03-.05v-.05l-.47-20.72.05.11-15.58-13.27.28.01-6.99 5.23-.07.05h-.09c-4.24.19-8.47.13-12.7.05-4.23-.08-8.45-.26-12.68-.46l-.17-.01-.12-.13-6.67-7.21.63.02-16.13 14.98.12-.25-1.45 21.44v.03l-.01.03c-.43 1.18-.88 2.35-1.41 3.49-.13.29-.27.57-.43.85-.08.14-.16.28-.26.41-.05.07-.1.13-.17.2-.06.05-.16.16-.36.13-.29-.15-.29-.36-.33-.52-.03-.17-.04-.33-.04-.49-.01-.32.01-.63.02-.95.03-1.23.12-2.53-.51-3.6-.59-1.08-1.41-2.01-2.32-2.9z" fill="#976f50" stroke-width="none" opacity="1"></path></g><g id="svga-group-glasses-single-move" transform="matrix(1,0,0,1,0,0)"><g id="svga-group-glasses-single"></g></g></g></g></g><rect id="svga-credit-rect" width="200" height="15" x="0" y="185" fill="#ecf0f1" opacity="0.5" style="display: none;"></rect><text id="svga-credit-text" font-family="Avenir Next, Roboto, Helvetica, Arial, sans-serif" font-size="10px" text-anchor="start" font-weight="400" size="10px" anchor="start" weight="400" fill="#333333" x="33.40277099609375" y="182.33333277702332" style="display: none;"><tspan id="SvgjsTspan6118" dy="13" x="33.40277099609375">Created on AvatarMaker.com</tspan></text></g><defs id="SvgjsDefs6065"></defs></svg>